<?xml version="1.0" standalone="no"?>
<!DOCTYPE svg PUBLIC "-//W3C//DTD SVG 20010904//EN"
 "http://www.w3.org/TR/2001/REC-SVG-20010904/DTD/svg10.dtd">
<svg version="1.0" xmlns="http://www.w3.org/2000/svg"
 width="1400.000000pt" height="1400.000000pt" viewBox="0 0 1400.000000 1400.000000"
 preserveAspectRatio="xMidYMid meet">
<metadata>
Created by potrace 1.11, written by Peter Selinger 2001-2013
</metadata>
<g transform="translate(0.000000,1400.000000) scale(0.100000,-0.100000)"
fill="#000000" stroke="none">
<path d="M5340 13736 c-92 -13 -133 -23 -355 -88 -105 -31 -306 -121 -337
-150 -10 -10 -29 -20 -43 -24 -14 -3 -25 -10 -25 -16 0 -5 -4 -7 -9 -3 -8 5
-211 -177 -219 -197 -2 -5 -9 -8 -17 -8 -7 0 -18 -6 -24 -14 -10 -12 -8 -14
11 -9 18 4 20 3 8 -6 -8 -6 -21 -11 -29 -11 -8 0 -26 -11 -40 -24 -80 -75 -93
-86 -106 -86 -8 0 -15 -4 -15 -8 0 -4 -15 -16 -32 -27 -58 -33 -390 -375 -440
-453 -26 -40 -68 -103 -92 -140 -25 -37 -55 -90 -66 -117 -12 -28 -25 -59 -30
-70 -58 -130 -92 -245 -135 -463 -30 -148 -41 -415 -25 -572 5 -52 14 -148 20
-213 8 -89 19 -138 42 -200 17 -45 35 -87 40 -93 5 -7 19 -43 33 -80 13 -38
37 -107 54 -154 17 -50 37 -135 46 -205 9 -66 21 -128 26 -138 17 -32 27 -106
15 -111 -7 -3 -7 -5 2 -5 6 -1 12 -9 12 -19 0 -10 4 -22 9 -27 11 -12 19 -125
9 -118 -5 2 -8 -14 -8 -37 0 -23 3 -39 8 -37 4 3 8 -9 9 -26 2 -30 23 -65 23
-38 0 30 17 -4 40 -78 13 -45 27 -81 30 -81 3 0 5 -19 4 -42 -1 -24 1 -31 3
-15 7 46 23 20 23 -38 0 -48 11 -78 23 -58 2 5 1 1 -2 -7 -8 -25 2 -212 15
-250 4 -12 2 -12 -11 1 -11 10 -20 45 -25 90 l-9 74 5 -75 c12 -186 17 -241
23 -244 3 -2 5 25 4 60 -3 98 13 76 21 -28 8 -123 8 -160 -3 -154 -5 3 -7 27
-5 53 l3 48 -9 -40 c-5 -26 -5 -54 2 -80 7 -22 12 -116 12 -210 1 -93 4 -172
8 -175 17 -13 7 -1103 -11 -1245 -6 -44 -14 -124 -17 -177 -5 -90 -14 -118
-27 -85 -3 7 -6 5 -6 -5 -1 -10 3 -18 8 -18 12 0 4 -245 -10 -313 -5 -26 -9
-72 -9 -102 0 -33 -5 -55 -12 -58 -10 -4 -10 -6 0 -6 6 -1 12 -13 12 -27 0
-20 -4 -25 -16 -20 -14 5 -15 4 -4 -8 7 -9 11 -35 8 -66 -1 -27 -2 -50 -1 -50
1 0 35 7 75 15 40 9 102 18 138 21 36 3 72 11 80 18 8 8 25 19 37 25 19 10 22
9 17 -4 -4 -10 0 -15 11 -15 11 0 15 -5 12 -14 -4 -10 -1 -13 9 -9 10 3 12 0
8 -10 -4 -11 5 -20 29 -32 20 -9 38 -23 41 -31 3 -8 12 -11 21 -8 13 5 5 17
-34 51 -28 25 -51 50 -51 57 0 15 190 95 253 106 103 18 194 31 271 39 l79 9
83 -63 c45 -35 93 -69 106 -76 30 -15 15 -1 -47 46 -78 59 -105 83 -105 94 0
6 6 10 13 9 6 -2 11 3 9 10 -1 8 2 11 7 7 12 -7 52 25 45 37 -3 4 1 8 10 8 8
0 17 -6 20 -12 3 -10 8 -9 18 3 15 18 42 30 83 36 59 9 85 9 85 1 0 -4 9 0 19
9 11 9 18 20 15 25 -3 4 3 5 12 1 13 -5 15 -3 9 7 -5 8 -3 11 6 8 8 -3 20 2
27 11 8 9 11 10 7 4 -13 -26 5 -12 19 15 8 15 15 21 16 14 0 -17 40 8 40 25 0
7 5 13 10 13 6 0 10 7 10 16 0 8 5 12 10 9 6 -3 10 -1 10 4 0 6 9 11 20 11 11
0 20 7 20 15 0 8 5 15 11 15 5 0 7 -4 4 -10 -3 -5 -3 -10 2 -10 9 0 57 67 66
93 4 9 11 17 17 17 6 0 9 3 7 8 -3 4 10 18 29 32 18 14 34 31 34 38 0 6 5 12
11 12 6 0 9 7 5 15 -3 8 -1 15 4 15 8 0 6 34 -6 71 -2 9 3 24 11 33 9 9 12 16
6 16 -6 0 -10 3 -10 8 3 18 -3 46 -8 35 -2 -7 -9 -13 -14 -13 -6 0 -6 7 0 18
7 13 6 23 -1 30 -8 8 -8 12 -2 12 6 0 11 7 11 15 0 8 -4 15 -9 15 -5 0 -4 9 2
19 7 13 7 22 0 26 -6 3 -9 19 -8 35 1 15 -4 36 -12 46 -8 9 -14 25 -12 35 2
13 -5 20 -25 25 -37 9 -72 29 -163 90 -41 28 -145 94 -232 147 -256 160 -473
354 -603 540 -72 103 -96 110 -107 31 -4 -29 -3 -50 2 -52 6 -2 10 -21 10 -42
0 -29 6 -43 22 -54 12 -9 19 -19 15 -23 -4 -3 -21 6 -37 22 -27 25 -30 27 -30
9 0 -10 -8 -28 -16 -39 -15 -19 -15 -18 -12 20 3 29 9 41 23 45 23 6 26 30 5
54 -10 13 -11 23 -4 34 10 18 11 78 2 88 -3 3 -2 22 3 42 8 34 2 50 -72 201
-73 151 -103 203 -220 391 -87 138 -120 213 -169 381 -32 109 -45 220 -61 504
-11 201 -24 300 -59 430 -52 191 -69 342 -71 635 -2 222 -2 222 58 318 18 29
33 57 33 62 0 6 4 10 9 10 5 0 13 9 16 20 3 11 15 20 25 20 10 0 21 8 24 18 4
10 16 29 28 42 27 29 78 152 68 165 -12 15 4 46 44 88 20 21 34 42 31 46 -2 5
1 14 9 20 8 7 17 23 21 38 7 28 17 40 58 66 15 10 27 24 27 32 0 7 7 21 16 30
9 8 14 22 11 29 -3 8 0 17 7 19 11 4 40 83 41 109 0 22 75 49 132 48 12 0 25
5 28 10 3 6 27 10 53 10 26 0 60 7 76 15 33 17 63 19 68 5 2 -6 32 -17 68 -25
36 -8 77 -22 93 -31 15 -8 31 -13 36 -10 4 3 105 6 222 7 204 1 218 0 290 -24
42 -14 85 -30 95 -35 11 -5 39 -19 64 -31 l45 -21 -40 5 -40 5 50 -24 c28 -13
66 -38 85 -56 19 -18 57 -47 85 -65 91 -59 145 -109 211 -191 18 -21 43 -51
58 -67 14 -15 38 -49 53 -75 15 -26 32 -50 38 -54 5 -4 7 -8 3 -8 -3 0 14 -30
37 -66 54 -82 64 -120 38 -139 -10 -8 -25 -15 -34 -15 -9 0 -24 -9 -33 -19
-10 -11 -24 -17 -32 -14 -9 3 -14 -2 -14 -17 0 -18 3 -20 13 -11 11 8 17 5 27
-14 11 -21 21 -25 59 -26 25 -1 54 0 64 1 34 3 66 -29 112 -114 52 -96 96
-212 102 -273 6 -56 -11 -75 -58 -63 -42 10 -89 32 -89 43 0 4 -10 7 -22 7
-13 0 -36 7 -53 16 -20 10 -64 16 -130 18 -55 2 -72 1 -37 -1 88 -6 77 -23
-13 -20 -56 1 -74 5 -70 15 3 9 -6 11 -38 7 -103 -14 -201 -54 -261 -108 -42
-38 -116 -176 -116 -217 0 -37 2 -37 165 -10 66 11 123 20 128 20 4 0 7 5 7
11 0 7 -11 9 -30 6 -16 -4 -43 -4 -59 -1 -23 5 -31 13 -39 43 -9 36 -7 39 24
61 19 12 34 26 34 31 0 5 9 9 20 9 12 0 20 -7 20 -17 0 -19 54 -118 69 -127 5
-4 20 -2 33 3 13 4 41 14 63 21 61 19 115 44 115 52 0 5 11 8 24 8 13 0 34 8
47 18 31 23 112 45 171 46 25 1 44 4 42 8 -17 28 168 -2 197 -32 50 -51 101
-170 114 -265 3 -27 10 -68 15 -90 27 -124 38 -436 31 -885 -1 -102 -2 -187
-1 -190 12 -38 19 -398 10 -465 -5 -33 -11 -105 -14 -160 -2 -55 -10 -122 -16
-150 -7 -27 -14 -63 -16 -79 -2 -16 -8 -45 -13 -65 -5 -20 -9 -43 -8 -52 0
-14 -83 -189 -149 -312 -14 -27 -74 -97 -134 -155 -84 -84 -124 -115 -181
-144 -41 -20 -85 -39 -99 -43 -14 -4 -34 -14 -45 -21 -11 -8 -30 -14 -42 -14
-13 0 -23 -4 -23 -9 0 -8 -45 -24 -75 -26 -33 -3 -84 -28 -78 -38 4 -7 -2 -5
-12 3 -17 14 -18 13 -12 -3 6 -17 5 -17 -15 -2 -13 8 -41 15 -63 14 -39 -1
-39 -1 -11 -9 16 -5 33 -7 38 -4 4 3 8 0 8 -5 0 -6 6 -10 13 -8 7 1 11 -7 10
-18 -3 -34 73 -56 158 -46 5 0 7 6 3 12 -4 8 -9 7 -15 -2 -4 -7 -11 -10 -15
-6 -4 4 -5 10 -2 13 9 8 58 13 58 5 0 -3 4 -13 10 -21 7 -12 12 -11 31 5 22
20 22 20 17 -3 -4 -13 -2 -20 3 -16 6 3 16 0 24 -6 10 -8 15 -9 15 -2 0 6 -8
16 -17 21 -10 6 -14 11 -10 11 5 0 21 -9 35 -21 16 -12 28 -16 30 -10 5 16 22
13 22 -3 0 -18 27 -29 33 -13 3 8 10 7 24 -6 13 -11 27 -15 38 -11 12 5 16 4
11 -4 -4 -7 2 -8 21 -3 42 12 93 5 107 -15 7 -9 18 -14 24 -10 7 4 12 3 12 -3
0 -6 8 -8 18 -5 12 4 13 3 4 -3 -7 -6 -10 -17 -6 -28 5 -13 4 -16 -4 -11 -7 4
-12 2 -12 -4 0 -6 7 -13 15 -16 8 -4 15 -12 15 -20 0 -8 6 -11 17 -7 10 4 14
2 10 -4 -4 -6 20 -32 53 -59 35 -29 58 -56 57 -66 -1 -9 5 -23 14 -30 22 -18
50 -94 42 -115 -5 -15 -4 -16 8 -7 11 9 17 9 26 -1 10 -11 10 -15 0 -19 -7 -3
-2 -3 10 0 27 6 46 -23 39 -61 -6 -33 2 -32 15 1 5 15 13 24 16 20 13 -12 14
-230 2 -316 -6 -47 -13 -103 -14 -125 -2 -22 -9 -85 -15 -140 -24 -204 -27
-241 -19 -267 4 -14 5 -29 2 -31 -2 -3 -8 -54 -13 -113 -4 -60 -11 -118 -16
-128 -5 -14 -4 -17 4 -12 18 11 15 -22 -8 -94 -23 -73 -23 -70 -10 -70 5 0 14
15 19 33 l10 32 -2 -40 c-2 -28 -7 -40 -17 -40 -8 0 -16 -8 -18 -17 -2 -12 1
-16 10 -13 17 7 23 -71 21 -295 -1 -96 -2 -252 -3 -346 0 -106 -7 -206 -16
-260 -9 -49 -20 -113 -25 -143 -5 -30 -8 -62 -6 -70 2 -9 11 30 22 87 30 167
40 161 55 -31 7 -91 10 -189 7 -219 -3 -29 -8 -71 -11 -93 -4 -36 -4 -36 6 8
6 26 14 47 18 47 4 0 5 11 2 25 -2 14 -2 25 2 25 9 0 36 -71 30 -81 -3 -5 0
-9 7 -9 8 0 9 10 5 31 -3 17 -6 40 -6 50 0 11 -5 18 -11 17 -14 -4 -22 39 -9
47 6 3 10 0 10 -8 0 -8 7 -21 17 -28 15 -13 15 -10 9 36 l-7 50 16 -30 c23
-43 31 -115 14 -126 -9 -5 -10 -9 -2 -9 6 0 15 -15 18 -33 4 -17 12 -38 17
-44 6 -7 19 -38 29 -70 19 -55 19 -56 14 -15 -3 23 -3 42 -1 42 3 0 15 -21 27
-48 12 -26 23 -41 26 -34 3 8 0 19 -6 25 -17 17 -13 31 4 17 21 -18 19 -3 -5
27 -11 14 -20 33 -20 42 0 9 -6 26 -14 37 -18 25 -66 168 -66 195 0 11 -4 28
-10 38 -5 10 -14 48 -20 83 -8 55 -7 82 10 164 11 55 20 104 21 109 4 34 22
-90 29 -200 8 -128 20 -185 46 -215 7 -9 20 -60 29 -113 16 -101 31 -154 41
-144 3 3 1 21 -6 41 -6 19 -10 57 -9 83 1 27 -1 55 -5 61 -4 7 -3 12 2 12 15
0 34 -60 19 -60 -7 0 -4 -5 6 -11 24 -14 56 -85 57 -125 0 -17 7 -55 16 -85
21 -75 24 -82 29 -78 2 3 -5 38 -15 79 -11 41 -20 87 -20 101 0 15 -11 57 -25
93 -26 70 -32 101 -15 91 10 -6 -10 46 -21 55 -7 5 -39 112 -39 127 1 4 8 -8
16 -27 15 -32 17 -33 24 -15 l9 20 0 -20 c1 -20 40 -126 67 -178 8 -16 14 -35
14 -43 0 -8 4 -14 9 -14 5 0 14 -14 20 -30 6 -17 20 -43 31 -57 11 -15 25 -46
31 -70 7 -25 16 -40 22 -36 6 4 7 1 3 -6 -9 -13 12 -71 25 -71 4 0 10 -10 12
-22 3 -17 5 -14 6 10 0 17 6 32 12 32 5 0 8 -3 5 -8 -2 -4 9 -25 25 -46 29
-39 42 -39 15 -1 -7 11 -17 31 -21 45 -4 14 12 -3 34 -37 23 -35 44 -63 46
-63 12 0 2 22 -28 62 -19 24 -37 62 -40 83 l-7 40 25 -30 c29 -35 33 -21 5 15
-11 14 -20 33 -20 42 0 10 -6 15 -13 12 -12 -4 -42 54 -33 64 2 2 7 -6 11 -17
3 -12 10 -21 15 -21 6 0 5 11 0 26 -27 71 23 8 60 -76 24 -54 62 -99 78 -93
14 4 15 3 3 -5 -13 -9 -12 -16 4 -46 23 -42 28 -41 16 2 -9 29 -8 30 12 23 26
-9 67 -79 61 -102 -3 -9 3 -22 12 -29 13 -12 17 -11 25 1 12 20 11 25 -7 44
-9 9 -17 28 -19 43 -1 15 -10 42 -20 61 -12 24 -17 56 -17 104 1 59 -8 97 -28
117 -23 23 -60 107 -54 123 2 7 -12 29 -31 50 -20 21 -33 42 -29 48 3 5 0 16
-6 24 -7 8 -10 15 -7 15 13 0 97 -53 97 -61 0 -6 4 -8 8 -5 17 10 32 -39 29
-89 -2 -27 -1 -54 3 -60 8 -11 34 -85 36 -100 1 -12 20 -58 40 -99 8 -16 12
-31 9 -34 -3 -3 -5 0 -5 6 0 7 -5 12 -12 12 -6 0 0 -13 15 -28 15 -16 25 -31
22 -34 -3 -3 0 -8 8 -11 10 -4 13 1 9 19 -2 13 -8 27 -13 30 -14 8 -11 26 4
19 6 -4 2 2 -10 13 -13 11 -23 28 -23 38 0 16 1 16 15 -2 8 -10 15 -15 15 -10
0 5 -12 22 -27 36 -25 25 -27 35 -30 111 -4 136 -12 272 -16 299 -9 50 -16
114 -11 95 4 -11 11 -25 16 -32 5 -7 11 -27 14 -45 14 -121 23 -167 37 -193
11 -20 17 -54 17 -99 0 -38 3 -66 7 -63 9 9 4 135 -6 172 -5 17 -12 59 -14 95
-5 62 -5 64 9 37 9 -16 12 -37 8 -49 -4 -13 -2 -18 4 -14 6 3 8 -1 6 -11 -5
-19 33 -89 43 -80 3 3 -2 16 -11 29 -9 12 -16 39 -16 60 0 20 -9 53 -21 72
-12 20 -17 36 -12 36 5 0 21 -22 34 -50 13 -27 30 -49 37 -50 10 0 7 13 -11
42 -13 24 -27 57 -30 73 -5 23 -1 19 14 -15 25 -56 50 -85 59 -69 4 6 21 -16
39 -53 39 -79 60 -107 86 -111 30 -4 45 -16 55 -43 5 -13 14 -24 19 -24 10 0
-1 26 -33 72 -10 16 -16 34 -13 42 3 7 -8 33 -23 57 -34 50 -31 63 5 29 14
-13 25 -19 25 -12 0 6 -11 19 -25 30 -14 11 -32 40 -40 64 l-16 43 41 -43 c22
-23 40 -49 40 -57 0 -8 4 -15 10 -15 5 0 7 13 5 30 -2 16 -2 30 1 30 2 0 15
-22 29 -49 28 -56 54 -81 29 -28 -11 23 -14 45 -10 63 7 28 8 28 22 10 7 -11
17 -16 21 -13 3 4 -6 20 -21 36 -16 16 -25 34 -22 40 4 5 -1 14 -10 19 -20 11
-124 132 -124 144 0 4 5 8 10 8 6 0 10 -6 10 -14 0 -7 8 -20 18 -27 15 -12 15
-12 5 1 -6 8 -12 20 -13 25 -6 25 -13 35 -32 41 -12 3 -17 11 -14 20 3 9 1 12
-4 9 -11 -7 -59 65 -96 145 -14 30 -32 66 -39 80 -7 14 -15 42 -19 63 -4 21
-13 40 -21 43 -7 3 -19 20 -25 37 -7 18 -21 55 -33 82 -11 28 -22 66 -24 85
-2 19 -8 39 -14 44 -5 6 -9 25 -9 44 0 18 -5 42 -11 53 -6 11 -14 42 -18 69
-6 37 -5 47 5 43 7 -3 18 -19 23 -36 15 -49 81 -314 85 -345 6 -42 16 -60 38
-65 13 -4 19 -11 15 -21 -3 -8 -1 -18 5 -22 6 -4 8 -3 4 4 -3 5 0 13 6 16 10
5 10 7 1 12 -7 3 -13 12 -13 20 0 8 -6 14 -14 14 -16 0 -29 37 -14 42 5 2 0
21 -13 43 -15 26 -19 40 -11 43 8 2 6 18 -8 55 -20 54 -64 225 -75 290 -7 41
1 49 15 15 9 -20 10 -18 7 12 -2 19 -7 44 -11 55 l-8 20 17 -20 c9 -11 34 -55
56 -97 22 -43 42 -78 44 -78 3 0 -3 17 -14 37 -10 21 -33 75 -51 121 -35 90
-31 112 16 112 13 0 24 5 24 11 0 6 -7 8 -16 5 -38 -14 -62 -17 -68 -7 -4 6 3
16 16 22 35 15 69 98 73 176 3 78 -2 100 -24 106 -14 4 -14 5 2 6 26 2 37 -38
34 -122 -2 -50 -8 -83 -20 -100 -21 -33 -22 -43 -1 -26 22 18 44 64 44 91 0
15 12 -1 35 -47 19 -38 34 -76 35 -82 0 -7 5 -13 11 -13 7 0 10 -12 7 -29 -2
-17 -1 -28 3 -25 4 2 12 -10 18 -28 15 -42 14 -44 -10 -22 l-22 19 13 -25 c7
-14 24 -36 37 -49 23 -24 26 -48 5 -44 -6 2 -9 -4 -5 -13 5 -12 7 -13 14 -3
10 16 14 12 34 -31 l16 -35 -6 35 c-5 26 -4 31 4 20 6 -8 11 -23 11 -34 0 -10
14 -38 30 -63 17 -24 30 -49 30 -54 0 -6 4 -8 8 -5 5 3 16 -10 25 -28 14 -31
20 -58 32 -166 3 -25 19 -119 35 -210 32 -183 32 -124 0 120 -10 74 -16 137
-14 139 7 8 24 -15 29 -39 2 -12 7 -25 11 -29 4 -3 4 2 1 12 -4 9 -3 17 2 17
9 0 47 -52 42 -58 -1 -2 4 -9 12 -15 21 -17 96 -123 106 -149 5 -13 27 -43 48
-68 22 -25 70 -87 106 -138 36 -51 67 -88 69 -82 1 5 30 -25 63 -67 33 -43 88
-105 122 -138 78 -76 143 -155 143 -175 0 -8 6 -24 13 -36 6 -12 29 -53 50
-93 21 -39 41 -70 45 -67 4 2 13 -10 20 -27 23 -56 53 -113 46 -87 -3 14 -8
40 -11 58 -3 18 -9 35 -14 38 -5 3 -9 13 -9 22 0 14 2 14 9 3 13 -20 45 -6 37
17 -5 15 -5 15 6 1 7 -8 22 -19 32 -23 19 -6 19 -6 3 12 -22 24 -22 39 0 21
15 -12 16 -12 10 3 -3 9 -11 35 -17 57 -6 23 -14 41 -19 41 -8 0 -33 70 -36
100 0 9 -9 27 -18 40 -9 14 -17 32 -17 42 0 10 -4 18 -9 18 -13 0 -47 108 -37
117 4 4 11 1 16 -7 5 -8 12 -11 16 -7 4 4 -4 20 -18 35 -32 34 -46 61 -53 103
-6 38 -15 64 -53 157 -14 34 -27 60 -30 58 -2 -3 4 -25 15 -48 26 -55 46 -118
41 -124 -5 -5 -48 94 -72 166 -19 56 -20 86 -1 45 24 -54 16 -16 -11 48 -15
34 -26 75 -26 92 0 17 -2 24 -7 17 -5 -9 -17 4 -35 39 -14 28 -25 54 -22 56 4
5 66 -59 66 -68 0 -4 7 -10 16 -13 13 -5 -33 55 -98 128 -10 11 -18 28 -18 38
0 10 -11 35 -25 56 -14 21 -33 62 -43 90 -11 29 -22 55 -25 59 -10 10 -8 45 2
39 20 -12 61 -108 61 -141 0 -19 4 -35 10 -35 5 0 8 24 7 54 -2 34 1 52 7 49
6 -4 6 1 1 13 -4 10 -10 37 -12 59 -3 37 -2 38 9 15 6 -14 10 -31 9 -39 -1 -7
2 -10 7 -7 6 3 13 -1 16 -10 3 -8 2 -12 -4 -9 -14 9 -12 -9 3 -24 10 -10 8
-11 -8 -6 -19 6 -19 6 -2 -8 9 -8 24 -32 32 -53 l15 -39 -6 45 -5 45 26 -45
c15 -25 31 -55 36 -68 5 -13 13 -20 19 -17 12 7 14 35 2 35 -8 0 -42 53 -42
66 0 4 13 -7 28 -24 35 -39 46 -41 37 -5 -5 22 -4 25 8 15 8 -7 13 -24 11 -39
-1 -15 2 -34 7 -43 8 -12 9 -11 5 5 -3 11 -2 26 3 34 6 10 19 -1 51 -43 23
-31 47 -53 53 -49 6 4 7 1 3 -6 -5 -7 -1 -20 6 -29 22 -26 68 -113 68 -128 0
-8 5 -14 11 -14 7 0 10 12 7 30 -4 23 -2 27 9 19 17 -15 113 -159 113 -171 0
-5 5 -6 11 -2 9 5 10 -1 5 -20 -6 -24 8 -39 16 -16 4 13 105 -123 136 -184 14
-28 30 -54 35 -57 23 -15 90 -147 297 -579 67 -140 136 -277 153 -304 36 -56
49 -80 96 -168 18 -34 41 -72 50 -83 23 -27 84 -132 113 -194 29 -64 58 -70
59 -13 l1 37 11 -35 c9 -31 11 -32 15 -12 2 13 -1 37 -7 54 -15 43 -14 53 6
37 15 -13 16 -11 9 14 -4 19 -3 26 4 22 5 -3 10 -19 10 -34 0 -16 8 -46 17
-67 9 -22 16 -45 14 -52 -1 -7 4 -11 11 -10 7 2 26 -25 43 -60 18 -34 35 -59
38 -55 4 3 7 -5 7 -18 0 -18 2 -21 9 -10 16 25 26 -35 26 -156 0 -88 2 -106
10 -84 14 40 23 48 18 14 -5 -27 -5 -27 11 -8 15 19 15 17 10 -26 -4 -29 -2
-54 5 -65 11 -17 12 -15 8 13 -2 24 1 33 15 36 15 4 18 1 13 -14 -4 -10 -2
-27 4 -36 9 -16 10 -14 11 10 0 15 5 27 11 27 9 0 10 20 6 67 -5 50 -4 64 5
55 15 -15 22 -132 8 -132 -5 0 -10 -7 -10 -15 0 -22 15 -18 29 8 10 19 11 17
6 -18 -4 -36 -3 -37 6 -15 17 38 27 64 31 78 2 8 17 -14 33 -47 30 -60 45 -76
45 -45 0 9 8 26 18 39 18 22 19 23 30 4 7 -11 12 -49 11 -88 -2 -74 9 -110 22
-75 4 10 5 29 2 41 -3 12 0 30 6 40 10 17 10 16 11 -4 0 -13 4 -23 9 -23 5 0
6 -15 2 -32 -4 -18 -4 -46 0 -63 4 -16 7 -24 8 -17 1 8 10 12 24 10 16 -2 21
1 19 15 -2 10 3 17 13 17 12 0 15 -6 10 -20 -4 -11 -2 -20 4 -20 6 0 11 11 11
24 0 13 3 32 7 42 4 12 3 15 -5 10 -7 -4 -12 -3 -12 3 0 5 5 13 11 16 6 4 8
14 4 24 -5 12 -3 13 6 4 6 -6 12 -29 13 -51 0 -22 3 -39 7 -37 5 4 39 -31 39
-40 0 -3 -7 -5 -15 -5 -13 0 -14 -4 -4 -22 8 -14 14 -18 17 -10 9 27 20 10 20
-32 1 -44 1 -44 -38 -51 -21 -4 -44 -13 -50 -21 -10 -11 -3 -11 36 2 27 9 58
19 69 24 11 5 36 13 55 19 52 17 90 35 90 43 0 4 -16 0 -36 -8 -20 -8 -38 -13
-41 -10 -8 7 7 46 18 46 5 0 9 14 9 31 0 26 3 31 20 26 13 -3 20 0 20 8 0 7
20 23 46 35 25 12 43 25 40 27 -3 3 -17 -2 -30 -11 -32 -20 -39 -20 -32 2 3 9
1 24 -5 32 -9 12 -10 11 -6 -7 3 -13 1 -23 -5 -23 -5 0 -6 -4 -3 -10 3 -5 1
-10 -6 -10 -6 0 -9 8 -6 18 32 110 32 111 14 141 -28 47 -19 59 10 14 15 -24
32 -39 39 -36 10 4 8 10 -9 24 -14 12 -17 18 -8 19 11 0 11 3 0 16 -10 13 -10
17 2 25 11 7 10 9 -6 9 -15 0 -16 3 -7 12 14 14 16 32 3 24 -5 -3 -12 5 -15
18 -3 13 -9 31 -12 40 -3 9 -1 16 6 16 6 0 8 -4 5 -10 -3 -5 -1 -10 4 -10 13
0 15 52 2 66 -14 14 -18 105 -5 100 7 -3 10 3 7 15 -3 10 -10 19 -15 19 -5 0
-7 4 -4 8 2 4 1 14 -4 22 -5 9 -5 19 2 27 7 9 6 22 -6 47 -18 38 -21 76 -6 76
6 0 10 -6 10 -12 1 -7 7 -26 15 -43 l13 -30 -5 35 c-2 19 -6 46 -7 60 -2 14
-7 33 -11 43 -10 24 7 21 23 -4 7 -12 16 -19 19 -16 3 3 -4 16 -16 28 -12 13
-21 29 -21 36 0 20 8 16 24 -14 18 -34 21 -17 4 24 -9 19 -18 28 -28 25 -11
-4 -9 2 5 18 11 13 14 20 8 16 -9 -5 -13 -1 -13 11 1 14 6 12 25 -11 13 -17
23 -32 23 -35 -2 -26 4 -51 11 -47 5 4 7 -3 4 -14 -4 -15 -1 -19 9 -15 10 4
17 -8 26 -40 6 -25 16 -45 22 -45 6 0 6 9 0 24 -5 13 -6 33 -4 44 3 11 -6 42
-20 70 -32 62 -35 92 -8 71 16 -13 16 -13 2 6 -8 11 -19 23 -25 27 -5 4 -7 8
-2 8 4 0 0 11 -9 25 -15 23 -15 25 2 32 10 4 19 2 22 -5 2 -7 10 -12 18 -12 9
0 13 -4 10 -9 -7 -11 22 -71 35 -71 13 0 11 7 -7 35 -10 15 -14 34 -10 48 3
15 -3 41 -16 68 -12 24 -23 57 -25 72 -3 30 -34 82 -61 104 -9 7 -13 16 -9 20
4 3 17 -2 28 -13 12 -10 20 -14 18 -9 -55 123 -86 164 -104 135 -3 -5 0 -10 8
-10 23 0 37 -23 22 -37 -10 -9 -15 -6 -25 15 -8 15 -12 31 -11 36 1 5 -12 23
-28 40 -17 17 -34 47 -37 66 -4 19 -15 46 -26 59 -10 13 -18 38 -18 55 0 28 4
25 40 -39 25 -43 38 -78 35 -91 -5 -25 28 -65 53 -63 15 1 15 2 0 6 -29 7 -30
50 -4 116 14 34 19 53 11 42 -8 -11 -19 -25 -25 -32 -5 -7 -10 -17 -10 -23 0
-6 -4 -9 -9 -5 -5 3 -7 22 -5 43 4 30 3 34 -6 19 -6 -9 -8 -22 -4 -29 4 -7 3
-8 -4 -4 -7 4 -12 18 -12 32 0 14 -7 27 -15 31 -9 3 -15 13 -13 22 1 9 -5 30
-14 46 -8 17 -13 36 -11 43 3 7 -1 11 -8 10 -7 -2 -14 4 -14 12 -1 8 -4 22 -7
30 -3 8 -11 31 -17 50 l-10 35 2 -39 c3 -33 2 -36 -10 -20 -7 10 -13 26 -13
35 0 28 -11 49 -23 42 -6 -3 -7 -1 -3 5 4 6 -4 28 -17 49 -13 21 -28 49 -32
63 -4 13 -30 58 -57 100 -27 41 -56 99 -64 128 -19 64 -63 172 -64 155 0 -7 7
-31 16 -53 38 -94 -3 -38 -131 180 -22 37 -45 74 -51 81 -6 8 -35 59 -64 114
-48 91 -85 152 -100 165 -15 14 -51 91 -46 99 4 5 3 11 -1 13 -13 5 -54 88
-49 97 3 5 -1 14 -9 21 -37 31 -168 273 -199 367 -10 28 -25 62 -35 75 -10 13
-24 41 -31 63 -7 22 -30 77 -51 123 -22 45 -39 89 -39 97 0 8 -4 15 -9 15 -5
0 -19 29 -31 64 -11 34 -29 80 -40 102 -11 21 -20 45 -20 54 0 8 -9 26 -20 40
-11 14 -20 32 -20 40 0 8 -9 30 -20 48 -11 18 -20 43 -20 56 0 20 -11 50 -50
141 -5 11 -34 99 -66 195 -31 96 -61 183 -66 193 -5 10 -6 22 -2 28 3 6 -1 16
-10 22 -10 7 -19 33 -22 61 -3 27 -10 60 -15 73 -5 13 -9 40 -9 58 0 22 -8 41
-21 54 -13 12 -19 26 -15 36 8 23 -55 246 -100 350 -9 22 -21 56 -25 75 -4 19
-22 89 -39 155 -18 66 -36 136 -40 155 -34 141 -43 170 -50 170 -7 0 -40 89
-40 108 0 2 9 -6 20 -19 20 -23 20 -22 -1 21 -12 25 -28 74 -36 110 -8 36 -15
72 -17 80 -2 8 -6 22 -9 30 -3 8 -10 38 -15 65 -6 28 -21 91 -35 140 -13 50
-35 146 -47 215 -13 69 -29 140 -36 158 -7 17 -9 32 -3 32 5 0 9 -5 9 -12 0
-6 2 -9 6 -6 3 3 -4 41 -16 84 -12 44 -23 95 -25 114 -3 19 -9 46 -14 60 -5
14 -14 52 -21 85 -6 33 -23 101 -37 152 -13 51 -21 98 -17 104 5 8 3 9 -6 4
-10 -6 -12 -2 -7 15 5 21 -11 79 -34 123 -5 10 -7 22 -4 28 6 9 -21 133 -33
153 -3 5 -6 24 -8 42 -2 18 -8 42 -13 53 -6 11 -11 29 -11 40 0 10 -6 32 -14
48 -8 15 -22 64 -31 108 -10 44 -22 85 -27 91 -5 7 -10 25 -12 40 -7 49 -38
149 -50 156 -6 4 -7 8 -3 8 5 0 1 8 -8 17 -12 11 -15 26 -12 49 4 24 -3 49
-29 100 -19 37 -34 78 -34 91 0 13 -7 40 -16 61 -27 65 -100 265 -118 327 -32
103 -107 282 -138 327 -10 14 -18 38 -18 52 0 14 -4 26 -10 26 -12 0 -41 56
-45 86 -1 12 -10 30 -19 39 -9 9 -14 21 -11 26 4 5 -7 26 -23 46 -15 21 -39
63 -53 93 -25 56 -119 218 -204 350 -127 198 -381 460 -608 628 -63 47 -194
132 -202 132 -3 0 -29 16 -58 34 -28 19 -81 47 -117 61 -36 15 -96 42 -135 60
-38 18 -90 38 -115 44 -25 7 -81 21 -125 32 -44 11 -120 27 -170 35 -124 21
-483 26 -605 10z m-1105 -615 c-3 -6 -11 -11 -17 -11 -6 0 -6 6 2 15 14 17 26
13 15 -4z m72 -967 c-3 -3 -12 -4 -19 -1 -8 3 -5 6 6 6 11 1 17 -2 13 -5z
m1630 -1519 c8 -23 -4 -30 -22 -12 -19 20 -19 27 0 27 9 0 18 -7 22 -15z m67
-28 c-10 -28 -24 -19 -24 15 0 29 2 31 15 17 9 -9 13 -23 9 -32z m-514 -147
c0 -5 -4 -10 -10 -10 -5 0 -10 5 -10 10 0 6 5 10 10 10 6 0 10 -4 10 -10z
m-1913 -212 c-3 -7 -5 -2 -5 12 0 14 2 19 5 13 2 -7 2 -19 0 -25z m3150 -390
c-3 -8 -6 -5 -6 6 -1 11 2 17 5 13 3 -3 4 -12 1 -19z m1000 -1390 c-2 -13 -4
-5 -4 17 -1 22 1 32 4 23 2 -10 2 -28 0 -40z m-960 -90 c-3 -7 -5 -2 -5 12 0
14 2 19 5 13 2 -7 2 -19 0 -25z m2093 -43 c0 -5 -5 -3 -10 5 -5 8 -10 20 -10
25 0 6 5 3 10 -5 5 -8 10 -19 10 -25z m-4523 -97 c-3 -8 -6 -5 -6 6 -1 11 2
17 5 13 3 -3 4 -12 1 -19z m-37 -172 c-10 -13 -9 -17 5 -23 12 -4 23 0 31 12
8 10 17 16 20 12 10 -9 -46 -79 -59 -74 -13 4 -22 70 -12 95 4 11 9 12 17 4 8
-8 8 -15 -2 -26z m1395 -676 c3 -6 -4 -10 -17 -10 -18 0 -20 2 -8 10 19 12 18
12 25 0z m252 -16 c-3 -3 -12 -4 -19 -1 -8 3 -5 6 6 6 11 1 17 -2 13 -5z
m-207 -14 c0 -5 -5 -10 -11 -10 -5 0 -7 5 -4 10 3 6 8 10 11 10 2 0 4 -4 4
-10z m-1106 -757 c36 -26 63 -50 61 -53 -3 -4 -43 -10 -91 -14 -99 -7 -264
-33 -297 -45 -12 -5 -62 -27 -110 -50 -98 -46 -103 -47 -110 -27 -4 9 4 16 24
20 16 3 29 11 29 18 1 17 85 73 130 86 84 25 121 32 133 26 6 -4 9 -4 5 1 -9
10 10 35 26 35 6 0 4 -5 -4 -10 -22 -14 -6 -12 57 6 30 9 69 14 86 11 l31 -4
-28 23 c-47 41 -9 26 58 -23z m2206 -237 c0 -39 -6 -30 -13 19 -4 27 -3 35 3
25 5 -8 10 -28 10 -44z m7 -128 c-3 -7 -5 -2 -5 12 0 14 2 19 5 13 2 -7 2 -19
0 -25z m53 -70 c0 -51 -5 -47 -13 10 -3 24 -1 40 4 36 5 -3 9 -24 9 -46z m-51
-41 c1 -23 -3 -36 -9 -32 -5 3 -10 30 -9 58 0 38 3 47 9 32 5 -11 9 -37 9 -58z
m697 -4 c-8 -8 -36 5 -36 17 0 7 6 7 21 0 11 -7 18 -14 15 -17z m-669 -5 c-3
-8 -6 -5 -6 6 -1 11 2 17 5 13 3 -3 4 -12 1 -19z m702 -48 c12 -22 20 -46 18
-53 -2 -6 -8 0 -12 15 -4 16 -11 25 -16 22 -5 -3 -9 4 -9 15 0 12 -4 21 -10
21 -5 0 -10 5 -10 10 0 22 17 8 39 -30z m-181 -10 c-1 -30 -11 -39 -23 -20 -4
7 14 50 22 50 1 0 1 -13 1 -30z m-540 -95 l-1 -60 -8 45 c-4 25 -7 65 -7 90 0
41 1 42 8 15 4 -16 8 -57 8 -90z m32 -3 c-6 -81 1 -163 12 -160 8 3 11 26 10
64 0 42 1 52 7 34 l8 -25 6 30 c3 17 4 5 4 -28 -1 -31 1 -57 6 -57 4 0 7 -7 7
-15 0 -8 5 -15 10 -15 15 0 12 -81 -6 -132 -14 -43 -32 -57 -70 -58 -7 0 -11
64 -11 200 0 121 3 197 9 194 5 -3 9 -18 8 -32z m475 8 c-3 -4 2 -13 10 -20
13 -11 14 -10 9 4 -3 9 -1 16 5 16 13 0 14 -108 2 -163 -9 -39 -45 -87 -65
-87 -15 0 -86 154 -86 186 0 15 3 25 6 21 8 -8 76 27 93 47 13 16 36 12 26 -4z
m-438 -22 c-3 -8 -6 -5 -6 6 -1 11 2 17 5 13 3 -3 4 -12 1 -19z m710 -70 c-3
-7 -5 -2 -5 12 0 14 2 19 5 13 2 -7 2 -19 0 -25z m13 -59 c-1 -8 -11 -2 -25
14 -32 37 -32 53 0 23 14 -13 25 -30 25 -37z m27 -51 c-3 -8 -6 -5 -6 6 -1 11
2 17 5 13 3 -3 4 -12 1 -19z m-840 -40 c-2 -13 -4 -5 -4 17 -1 22 1 32 4 23 2
-10 2 -28 0 -40z m816 -25 c-5 -12 -8 -11 -19 8 -21 38 -17 58 6 31 10 -13 16
-30 13 -39z m-405 -48 c0 -5 -6 4 -13 20 -8 17 -14 37 -14 45 0 8 7 -1 14 -20
7 -19 13 -39 13 -45z m477 18 c16 -51 35 -256 22 -243 -2 3 -14 25 -26 50 -21
43 -21 44 -1 21 15 -17 20 -19 20 -8 0 9 -5 19 -11 23 -19 12 -49 88 -48 124
l1 35 8 -33 c4 -18 10 -35 13 -38 7 -7 -2 106 -9 117 -3 5 -1 9 4 9 4 0 17
-26 27 -57z m-735 -28 c0 -8 -4 -15 -10 -15 -5 0 -7 7 -4 15 4 8 8 15 10 15 2
0 4 -7 4 -15z m1260 -68 c0 -12 0 -11 -24 28 l-17 30 20 -24 c12 -13 21 -28
21 -34z m-1242 -22 c0 -16 -2 -15 -8 5 -11 34 -11 60 0 35 5 -11 8 -29 8 -40z
m1288 13 c1 -5 2 -14 3 -20 2 -7 6 -4 11 7 7 17 9 16 10 -10 1 -16 4 -43 6
-60 l5 -29 -19 24 c-31 40 -48 83 -44 110 4 23 4 23 15 5 6 -11 12 -23 13 -27z
m-1395 3 c6 9 9 -1 10 -31 0 -25 4 -55 7 -68 l7 -23 23 21 c12 11 22 26 23 33
1 7 7 -17 14 -53 7 -36 11 -68 8 -72 -2 -5 1 -8 6 -8 6 0 11 15 12 33 0 17 4
41 9 52 6 13 9 -16 9 -82 1 -57 -3 -103 -7 -103 -5 0 -7 -12 -5 -27 9 -69 17
-283 11 -283 -4 0 -10 16 -14 35 -3 19 -11 38 -16 41 -11 7 -7 -11 19 -87 9
-26 13 -55 9 -65 -7 -18 -8 -18 -19 1 -6 11 -17 35 -23 53 -10 28 -10 31 2 21
8 -6 14 -9 14 -6 0 15 -33 93 -44 107 -8 8 -21 50 -30 93 -9 44 -19 84 -23 90
-7 11 -13 45 -28 147 l-7 45 26 -50 c15 -27 24 -41 21 -31 -5 17 -17 100 -29
206 -3 19 -2 26 1 16 4 -15 7 -16 14 -5z m66 -43 c-3 -7 -5 -2 -5 12 0 14 2
19 5 13 2 -7 2 -19 0 -25z m1118 -39 c4 -11 12 -19 20 -19 7 0 22 -15 34 -32
11 -18 21 -29 21 -24 0 4 -14 29 -31 55 -24 35 -26 41 -9 26 26 -24 62 -90 53
-99 -4 -3 3 -16 14 -29 22 -23 65 -105 78 -147 7 -22 6 -23 -8 -12 -9 8 -30
37 -48 65 -18 29 -58 90 -89 137 -32 47 -63 96 -70 110 -13 25 -13 25 8 6 12
-10 24 -27 27 -37z m-808 -1 c-3 -8 -6 -5 -6 6 -1 11 2 17 5 13 3 -3 4 -12 1
-19z m560 -35 c17 -42 17 -48 -3 -33 -13 12 -44 72 -44 87 0 15 35 -26 47 -54z
m288 -93 c43 -63 117 -174 143 -215 19 -30 51 -104 59 -132 4 -20 3 -24 -7
-18 -7 4 -3 -5 9 -22 12 -16 23 -40 25 -54 2 -13 10 -40 19 -60 9 -19 18 -48
22 -65 l6 -29 -30 35 c-17 19 -31 40 -31 48 0 7 -20 45 -45 83 -25 38 -45 72
-45 76 0 12 29 -19 56 -62 15 -25 32 -45 37 -45 10 0 6 8 -61 102 -30 43 -60
75 -65 71 -6 -3 -7 -1 -3 6 4 6 -3 28 -15 48 -31 49 -7 33 41 -29 22 -27 40
-46 40 -41 -1 17 -73 106 -91 110 -17 5 -29 26 -35 63 -2 8 -11 22 -21 30 -21
18 -46 60 -37 60 4 0 29 -24 57 -52 l49 -53 -33 48 c-18 27 -37 51 -41 53 -5
3 -8 14 -8 24 0 11 -8 24 -18 29 -10 5 -30 32 -45 59 -53 97 -28 72 68 -68z
m-321 43 c4 -21 9 -47 12 -58 4 -15 1 -14 -9 5 -20 34 -31 90 -19 90 5 0 13
-17 16 -37z m524 12 c-3 -3 -9 2 -12 12 -6 14 -5 15 5 6 7 -7 10 -15 7 -18z
m-466 -55 c6 -19 13 -53 14 -75 2 -30 11 -50 34 -75 18 -19 45 -62 62 -95 19
-40 27 -50 23 -30 -4 25 -3 27 6 12 6 -10 8 -25 5 -34 -4 -9 1 -21 11 -29 10
-7 14 -13 8 -14 -17 0 -30 13 -61 60 -17 25 -46 68 -66 96 -49 69 -70 113 -64
130 3 8 2 24 -3 37 -4 12 -11 34 -15 50 -6 26 -5 27 14 15 11 -7 25 -29 32
-48z m-794 -360 c1 -201 -3 -356 -7 -345 -12 29 -23 504 -15 636 13 205 22 82
22 -291z m1396 384 c3 -8 2 -12 -4 -9 -6 3 -10 10 -10 16 0 14 7 11 14 -7z
m-554 -147 c0 -5 -4 -5 -10 -2 -5 3 -10 14 -10 23 0 15 2 15 10 2 5 -8 10 -19
10 -23z m-785 -70 c10 -39 19 -106 20 -149 2 -42 8 -85 14 -97 6 -11 14 -47
18 -80 3 -33 10 -58 15 -55 5 3 8 -9 8 -28 -1 -28 11 -102 35 -228 19 -97 19
-98 -9 -45 -14 28 -26 54 -26 60 0 5 -11 32 -25 60 -13 27 -27 59 -30 69 -3
10 -7 17 -10 14 -8 -8 17 -83 35 -103 9 -11 20 -37 23 -58 5 -33 4 -37 -8 -27
-8 7 -15 19 -15 27 0 20 -41 93 -52 93 -5 0 -2 -10 7 -22 8 -13 20 -39 25 -58
5 -19 25 -52 44 -72 19 -20 31 -40 27 -43 -3 -4 0 -5 8 -3 7 2 16 -3 19 -11 3
-8 0 -11 -7 -7 -6 4 -11 3 -11 -3 0 -5 6 -12 13 -14 6 -3 7 -6 1 -6 -6 -1 -21
10 -34 24 -13 14 -28 25 -33 25 -6 0 1 -10 14 -23 13 -13 30 -32 37 -43 9 -13
14 -15 18 -6 8 17 25 5 18 -13 -4 -10 -12 -11 -32 -4 -54 20 -84 58 -112 142
-11 34 -10 40 7 53 10 9 12 13 6 9 -7 -3 -13 -1 -13 6 0 7 -7 20 -15 29 -12
13 -13 27 -7 62 5 25 5 69 1 99 -11 79 -11 511 0 504 5 -3 17 -38 26 -78z
m814 53 c11 -24 11 -24 -3 -6 -9 11 -16 24 -16 30 0 12 5 7 19 -24z m-1328
-56 c-6 -28 -9 -32 -10 -14 -1 30 11 79 16 64 2 -6 -1 -28 -6 -50z m2129 -64
c6 -11 8 -20 6 -20 -3 0 -10 9 -16 20 -6 11 -8 20 -6 20 3 0 10 -9 16 -20z
m-2081 -191 c19 -127 19 -139 4 -231 -9 -54 -19 -98 -23 -98 -4 0 -7 39 -6 88
1 48 0 116 -2 152 -5 91 -3 234 3 229 2 -3 14 -66 24 -140z m309 96 c-3 -3 -9
2 -12 12 -6 14 -5 15 5 6 7 -7 10 -15 7 -18z m1096 -25 l17 -35 -21 24 c-11
13 -20 30 -20 39 0 19 3 15 24 -28z m-674 -165 c-8 -10 -7 -17 6 -29 9 -10 14
-20 11 -23 -13 -12 -39 28 -33 52 3 13 2 27 -4 30 -5 3 -10 10 -10 16 0 5 9 0
21 -12 15 -15 18 -24 9 -34z m-358 -14 c2 -22 0 -37 -4 -35 -8 5 -11 74 -4 74
2 0 6 -18 8 -39z m-268 -110 c-10 -10 -17 12 -20 61 l-4 53 14 -55 c8 -30 12
-57 10 -59z m675 49 c0 -10 -3 -8 -9 5 -12 27 -12 43 0 25 5 -8 9 -22 9 -30z
m-188 -27 c-10 -17 -10 -16 -11 3 0 23 13 41 18 25 2 -6 -1 -18 -7 -28z m221
-69 c24 -31 48 -66 54 -78 17 -31 25 -86 14 -86 -6 0 -10 15 -10 34 0 25 -11
47 -40 82 -37 45 -74 104 -65 104 3 0 24 -25 47 -56z m22 10 c3 -8 2 -12 -4
-9 -6 3 -10 10 -10 16 0 14 7 11 14 -7z m877 -47 c7 -18 24 -40 36 -50 26 -21
31 -39 9 -31 -21 8 -64 67 -83 112 -15 37 -15 37 5 19 11 -10 26 -33 33 -50z
m-1577 -50 c-4 -19 2 -40 20 -71 14 -25 26 -53 25 -63 0 -14 -2 -14 -6 -3 -3
8 -17 32 -30 52 -21 31 -24 45 -19 76 4 26 1 45 -9 58 -8 10 -14 24 -15 29 0
6 9 -3 20 -20 14 -20 18 -39 14 -58z m473 61 c-3 -8 -6 -5 -6 6 -1 11 2 17 5
13 3 -3 4 -12 1 -19z m-675 -66 c-2 -15 1 -51 6 -80 10 -58 5 -113 -9 -90 -10
15 -12 182 -2 191 10 10 10 9 5 -21z m917 -16 c-3 -3 -11 5 -18 17 -13 21 -12
21 5 5 10 -10 16 -20 13 -22z m-192 -18 c-3 -7 -5 -2 -5 12 0 14 2 19 5 13 2
-7 2 -19 0 -25z m117 -48 c7 -24 6 -24 -8 -6 -9 11 -16 27 -16 35 0 21 16 2
24 -29z m-684 -42 c0 -23 -3 -29 -9 -19 -8 12 -4 51 5 51 2 0 4 -15 4 -32z
m57 0 c-3 -8 -6 -5 -6 6 -1 11 2 17 5 13 3 -3 4 -12 1 -19z m498 -28 c10 -46
0 -36 -14 14 -5 22 -6 35 -2 30 5 -5 12 -25 16 -44z m1185 29 c0 -6 -4 -7 -10
-4 -5 3 -10 11 -10 16 0 6 5 7 10 4 6 -3 10 -11 10 -16z m2092 -99 c6 -14 12
-32 13 -40 1 -8 6 -27 10 -42 16 -61 -12 -23 -48 64 -37 90 -37 91 -11 67 14
-13 31 -35 36 -49z m-2922 -84 c0 -6 -7 -1 -15 10 -8 10 -15 23 -15 28 0 6 7
1 15 -10 8 -10 15 -23 15 -28z m-416 -36 c-6 -5 -24 21 -24 34 0 6 6 1 14 -10
8 -10 12 -21 10 -24z m419 -20 c-6 -7 -43 39 -43 54 0 6 11 -2 24 -19 13 -16
22 -32 19 -35z m-626 -45 c21 -56 25 -87 11 -83 -7 3 -12 14 -10 24 1 11 -9
42 -23 69 -14 28 -25 54 -25 59 0 15 36 -37 47 -69z m1606 0 c9 -25 12 -45 8
-45 -4 0 -14 22 -22 49 -19 62 -7 58 14 -4z m-1284 -5 c0 -9 -4 -8 -9 5 -5 11
-9 27 -9 35 0 9 4 8 9 -5 5 -11 9 -27 9 -35z m1308 -72 c-3 -8 -6 -5 -6 6 -1
11 2 17 5 13 3 -3 4 -12 1 -19z m63 0 c0 -12 -1 -19 -3 -17 -1 2 -9 12 -16 22
-12 14 -11 17 3 17 10 0 16 -8 16 -22z m-1480 -82 c0 -5 -7 -1 -15 10 -8 10
-14 24 -14 29 0 6 6 1 14 -9 8 -11 15 -24 15 -30z m-160 -82 c0 -14 -4 -22
-10 -19 -5 3 -10 17 -10 31 0 14 4 22 10 19 6 -3 10 -17 10 -31z m37 4 c-3 -8
-6 -5 -6 6 -1 11 2 17 5 13 3 -3 4 -12 1 -19z m3661 -53 c-3 -3 -9 2 -12 12
-6 14 -5 15 5 6 7 -7 10 -15 7 -18z m-23 5 c3 -5 1 -10 -4 -10 -6 0 -11 5 -11
10 0 6 2 10 4 10 3 0 8 -4 11 -10z m65 -81 c24 -46 20 -66 -4 -22 l-16 28 6
-27 c4 -17 2 -28 -5 -28 -6 0 -10 18 -9 45 1 25 4 45 5 45 1 0 12 -18 23 -41z
m40 -106 c8 -27 16 -54 18 -62 2 -8 -1 -11 -7 -7 -6 4 -11 15 -11 24 0 9 -5
24 -10 32 -9 13 -11 13 -20 0 -14 -22 -12 -30 5 -24 9 4 15 0 15 -10 0 -9 -6
-16 -14 -16 -12 0 -21 16 -43 75 -3 6 2 2 10 -7 17 -21 27 -14 27 19 0 38 15
26 30 -24z m-1023 -305 c-3 -8 -6 -5 -6 6 -1 11 2 17 5 13 3 -3 4 -12 1 -19z
m922 -21 c1 -5 -3 -5 -9 -2 -5 3 -10 16 -9 28 0 21 1 21 9 2 5 -11 9 -24 9
-28z m-941 -62 c-3 -3 -9 2 -12 12 -6 14 -5 15 5 6 7 -7 10 -15 7 -18z m967
-295 c3 -5 -1 -10 -9 -10 -9 0 -16 5 -16 10 0 6 4 10 9 10 6 0 13 -4 16 -10z
m-558 -172 c-2 -13 -4 -5 -4 17 -1 22 1 32 4 23 2 -10 2 -28 0 -40z m120 -30
c-3 -8 -6 -5 -6 6 -1 11 2 17 5 13 3 -3 4 -12 1 -19z m83 -52 c0 -2 -7 -6 -15
-10 -8 -3 -15 -1 -15 4 0 6 7 10 15 10 8 0 15 -2 15 -4z m77 -88 c-3 -8 -6 -5
-6 6 -1 11 2 17 5 13 3 -3 4 -12 1 -19z m120 -15 c-3 -10 -5 -4 -5 12 0 17 2
24 5 18 2 -7 2 -21 0 -30z m30 5 c-3 -8 -6 -5 -6 6 -1 11 2 17 5 13 3 -3 4
-12 1 -19z m-177 -52 c0 -3 -4 -8 -10 -11 -5 -3 -10 -1 -10 4 0 6 5 11 10 11
6 0 10 -2 10 -4z m214 -81 c-7 -51 -10 -55 -39 -55 -21 0 -24 4 -23 35 1 22 7
36 17 38 9 3 5 5 -9 6 -36 2 -7 18 31 17 28 -1 29 -2 23 -41z"/>
<path d="M6921 5414 c0 -11 3 -14 6 -6 3 7 2 16 -1 19 -3 4 -6 -2 -5 -13z"/>
<path d="M7002 5340 c0 -14 2 -19 5 -12 2 6 2 18 0 25 -3 6 -5 1 -5 -13z"/>
<path d="M6901 5310 c0 -8 4 -24 9 -35 5 -13 9 -14 9 -5 0 8 -4 24 -9 35 -5
13 -9 14 -9 5z"/>
<path d="M6931 5284 c0 -11 3 -14 6 -6 3 7 2 16 -1 19 -3 4 -6 -2 -5 -13z"/>
<path d="M6941 5170 c0 -8 6 -28 14 -45 l14 -30 -6 30 c-7 38 -22 68 -22 45z"/>
<path d="M8210 5190 c6 -11 13 -20 16 -20 2 0 0 9 -6 20 -6 11 -13 20 -16 20
-2 0 0 -9 6 -20z"/>
<path d="M7112 5120 c0 -8 4 -26 8 -40 6 -20 8 -21 8 -5 0 11 -3 29 -8 40 -5
12 -8 14 -8 5z"/>
<path d="M7150 4472 c0 -5 7 -15 15 -22 8 -7 15 -8 15 -2 0 5 -7 15 -15 22 -8
7 -15 8 -15 2z"/>
<path d="M5650 11111 c0 -7 -20 -11 -51 -11 -51 0 -169 -43 -169 -61 0 -5 -10
-9 -22 -9 -13 0 -38 -9 -56 -20 -18 -11 -40 -20 -50 -20 -15 0 -15 -2 -2 -10
13 -8 12 -10 -2 -10 -10 0 -18 -5 -18 -11 0 -6 -7 -9 -15 -6 -8 4 -17 2 -20
-3 -4 -6 -15 -10 -26 -10 -10 0 -19 -5 -19 -11 0 -6 6 -9 13 -6 6 2 18 -3 25
-12 11 -14 12 -13 7 6 -3 12 -2 24 3 27 11 6 34 -73 26 -86 -6 -9 8 -10 30 -2
9 3 16 12 16 20 0 8 5 14 10 14 6 0 10 -4 10 -10 0 -11 94 22 119 42 9 8 40
25 69 38 28 13 52 27 52 32 0 4 10 8 21 8 12 0 36 16 55 35 18 19 38 35 45 35
8 0 8 5 -2 17 -10 11 -10 14 -1 9 6 -4 12 -3 12 2 0 6 -7 12 -15 16 -8 3 -15
0 -15 -6 0 -7 -5 -6 -15 2 -10 9 -15 9 -15 1z"/>
<path d="M5183 10853 c9 -2 23 -2 30 0 6 3 -1 5 -18 5 -16 0 -22 -2 -12 -5z"/>
<path d="M4275 10769 c-114 -18 -197 -24 -201 -17 -10 16 -79 -11 -153 -61 -8
-5 -16 -27 -17 -48 l-2 -38 147 8 c80 5 232 6 336 3 l191 -5 2 24 c3 40 -15
75 -39 75 -12 0 -23 8 -26 19 -3 11 -18 22 -36 26 -18 5 -39 10 -47 12 -38 9
-100 10 -155 2z m-260 -39 c-3 -5 -12 -10 -18 -10 -7 0 -6 4 3 10 19 12 23 12
15 0z"/>
<path d="M4204 10385 c-39 -7 -80 -18 -92 -24 -11 -6 -28 -11 -36 -11 -16 0
-101 -54 -111 -71 -4 -5 -11 -7 -16 -4 -5 4 -9 1 -9 -5 0 -7 -9 -24 -19 -39
-20 -27 -26 -99 -15 -162 5 -25 7 -26 45 -18 42 10 70 -3 62 -28 -7 -20 104
-13 123 8 14 16 13 18 -8 25 -13 4 -29 16 -37 26 -7 11 -24 23 -37 28 -13 5
-24 16 -24 23 0 16 83 107 98 107 6 0 17 3 25 6 11 4 16 -6 21 -39 5 -32 18
-56 46 -87 36 -39 42 -42 77 -37 99 13 320 103 330 134 6 17 -51 77 -105 112
-94 60 -197 78 -318 56z m60 -19 c-3 -9 -16 -13 -32 -11 -38 4 -39 5 -17 15
32 14 55 12 49 -4z m119 -3 c-13 -2 -35 -2 -50 0 -16 2 -5 4 22 4 28 0 40 -2
28 -4z m141 -108 c34 -31 34 -62 0 -75 -45 -18 -49 -14 -46 45 2 30 7 55 11
55 5 0 20 -11 35 -25z"/>
<path d="M5305 9320 c-12 -4 -26 -15 -33 -23 -11 -12 -7 -17 20 -27 65 -23
105 -22 155 4 l48 24 -54 16 c-59 17 -104 20 -136 6z"/>
<path d="M4867 9214 c-4 -4 -7 -22 -7 -40 0 -41 32 -63 97 -67 43 -2 48 0 51
20 3 21 -19 36 -129 91 -3 1 -8 -1 -12 -4z"/>
<path d="M5626 8743 l-59 -4 28 -15 c26 -14 85 -25 128 -25 9 0 17 -4 17 -10
0 -5 -4 -9 -8 -9 -4 0 -26 -17 -47 -38 -41 -38 -59 -48 -153 -77 -40 -12 -57
-13 -67 -5 -10 8 -14 7 -17 -6 -2 -10 -25 -23 -63 -35 -79 -25 -90 -24 -114 9
-11 15 -21 22 -21 16 0 -19 -68 -27 -85 -10 -13 12 -13 15 1 20 8 3 13 10 9
15 -8 14 24 28 62 29 18 0 40 5 50 11 29 17 -17 18 -114 3 -29 -5 -53 -5 -53
-1 0 5 -22 7 -50 6 -27 -1 -45 -3 -40 -5 6 -2 10 -8 10 -14 0 -6 -6 -8 -13 -5
-9 3 -13 -2 -12 -16 2 -13 8 -21 16 -19 8 2 11 0 6 -4 -4 -4 -15 -8 -25 -9 -9
-1 -32 -5 -49 -9 -30 -7 -35 -12 -32 -33 0 -3 -6 -10 -15 -15 -21 -12 -21 -48
0 -48 9 0 32 -9 51 -21 18 -12 43 -19 53 -16 11 3 20 1 20 -3 0 -8 40 -11 145
-11 21 0 50 6 64 13 19 10 25 10 28 1 7 -20 17 -15 37 17 9 17 22 27 28 24 7
-5 8 -2 4 5 -9 15 21 40 47 41 11 0 30 9 44 20 14 11 34 20 44 20 11 0 27 4
37 9 9 5 48 19 86 31 38 11 88 30 112 40 24 11 49 20 56 20 7 0 28 9 46 20 18
11 39 20 47 20 9 0 12 6 9 15 -4 10 -13 13 -26 9 -12 -3 -24 0 -31 9 -11 14
-112 50 -126 45 -3 -1 -33 -3 -65 -5z"/>
<path d="M5890 8700 c0 -5 7 -10 15 -10 8 0 15 5 15 10 0 6 -7 10 -15 10 -8 0
-15 -4 -15 -10z"/>
<path d="M5429 8673 c-13 -17 -13 -17 6 -3 11 8 22 16 24 17 2 2 0 3 -6 3 -6
0 -17 -8 -24 -17z"/>
<path d="M5630 8653 c0 -12 5 -25 10 -28 13 -8 13 15 0 35 -8 12 -10 11 -10
-7z"/>
<path d="M5367 8459 c-4 -16 -1 -20 15 -17 12 2 22 11 24 21 3 25 -32 22 -39
-4z"/>
<path d="M4310 8360 c-9 -6 -10 -10 -3 -10 6 0 15 5 18 10 8 12 4 12 -15 0z"/>
<path d="M5456 7443 c-6 -14 -5 -15 5 -6 7 7 10 15 7 18 -3 3 -9 -2 -12 -12z"/>
<path d="M5484 7439 c-3 -5 5 -9 18 -9 13 0 30 -6 37 -12 10 -11 11 -10 6 3
-7 19 -52 31 -61 18z"/>
<path d="M5625 7390 c3 -5 8 -10 11 -10 2 0 4 5 4 10 0 6 -5 10 -11 10 -5 0
-7 -4 -4 -10z"/>
<path d="M3762 7050 c0 -19 2 -27 5 -17 2 9 2 25 0 35 -3 9 -5 1 -5 -18z"/>
<path d="M3681 6928 c-7 -29 -18 -91 -26 -138 -33 -198 -36 -230 -26 -247 8
-15 10 -13 9 12 -1 17 4 59 11 95 7 36 16 94 21 130 5 36 14 94 20 129 13 78
7 91 -9 19z"/>
<path d="M3742 6820 c0 -19 2 -27 5 -17 2 9 2 25 0 35 -3 9 -5 1 -5 -18z"/>
<path d="M6550 6840 c0 -5 5 -10 11 -10 5 0 7 5 4 10 -3 6 -8 10 -11 10 -2 0
-4 -4 -4 -10z"/>
<path d="M3556 6718 c-3 -13 -5 -43 -5 -68 1 -41 2 -39 10 20 8 66 6 89 -5 48z"/>
<path d="M3592 6350 c0 -19 2 -27 5 -17 2 9 2 25 0 35 -3 9 -5 1 -5 -18z"/>
<path d="M4019 6341 c-19 -21 -56 -53 -84 -71 -27 -18 -70 -50 -95 -70 -25
-20 -67 -51 -93 -69 -102 -69 -148 -130 -243 -322 -79 -159 -109 -207 -203
-324 -126 -157 -183 -299 -232 -580 -31 -176 -86 -415 -114 -494 -8 -24 -15
-49 -14 -55 0 -6 9 14 20 44 32 88 88 320 113 474 57 335 103 442 283 663 42
50 90 130 144 236 104 206 113 219 197 297 69 64 213 173 262 198 28 15 110
92 110 104 0 18 -19 6 -51 -31z"/>
<path d="M4855 6363 l-50 -13 50 6 c28 3 52 8 54 10 11 10 -8 9 -54 -3z"/>
<path d="M4938 6373 c7 -3 16 -2 19 1 4 3 -2 6 -13 5 -11 0 -14 -3 -6 -6z"/>
<path d="M4720 6340 c-34 -7 -34 -7 -5 -8 17 0 44 4 60 8 27 7 27 8 5 8 -14
-1 -41 -4 -60 -8z"/>
<path d="M4628 6323 c12 -2 30 -2 40 0 9 3 -1 5 -23 4 -22 0 -30 -2 -17 -4z"/>
<path d="M4543 6313 c9 -2 25 -2 35 0 9 3 1 5 -18 5 -19 0 -27 -2 -17 -5z"/>
<path d="M3576 6268 c-63 -43 -142 -120 -204 -197 -20 -25 -40 -48 -44 -51 -7
-6 -112 -165 -217 -329 -35 -55 -71 -108 -80 -118 -9 -10 -30 -36 -46 -58 -17
-22 -37 -48 -45 -57 -9 -9 -35 -53 -58 -97 -38 -72 -67 -159 -92 -281 -5 -25
-17 -76 -25 -115 -9 -38 -20 -92 -25 -120 -6 -27 -16 -77 -24 -110 -8 -33 -30
-134 -50 -225 -19 -91 -46 -210 -60 -265 -14 -55 -41 -167 -60 -250 -20 -82
-50 -197 -67 -255 -29 -102 -38 -128 -114 -334 -20 -54 -34 -100 -32 -102 5
-5 124 319 154 419 30 103 97 373 156 627 39 169 66 288 143 645 69 321 87
360 255 575 37 47 93 128 124 180 142 235 265 390 380 480 31 25 67 53 79 62
39 31 12 18 -48 -24z"/>
<path d="M4483 6303 c9 -2 23 -2 30 0 6 3 -1 5 -18 5 -16 0 -22 -2 -12 -5z"/>
<path d="M3898 6284 c-16 -8 -28 -17 -28 -19 0 -10 16 -4 40 15 30 23 25 25
-12 4z"/>
<path d="M3995 6264 c-48 -32 -68 -51 -38 -35 13 7 48 9 84 7 52 -4 67 -1 88
16 l26 20 -25 -2 c-54 -5 -101 0 -95 10 9 15 4 13 -40 -16z"/>
<path d="M4388 6283 c7 -3 16 -2 19 1 4 3 -2 6 -13 5 -11 0 -14 -3 -6 -6z"/>
<path d="M4157 6200 c-39 -38 -75 -70 -79 -70 -4 0 -37 -26 -74 -57 -86 -73
-151 -173 -210 -327 -43 -108 -104 -216 -156 -270 -48 -51 -142 -184 -174
-247 -47 -95 -79 -187 -128 -369 -10 -36 -29 -98 -43 -138 -36 -109 -36 -110
-22 -88 18 30 46 109 80 231 52 189 89 295 122 354 42 76 111 175 167 241 85
99 121 157 160 260 83 211 143 300 263 386 55 40 187 164 174 164 -4 0 -40
-31 -80 -70z"/>
<path d="M4160 6245 c-7 -8 -16 -12 -21 -9 -5 3 -6 -2 -3 -10 5 -14 8 -13 22
2 9 9 21 20 27 24 6 5 6 8 -1 8 -6 0 -17 -7 -24 -15z"/>
<path d="M4240 6235 c-11 -13 -10 -14 3 -9 9 3 29 -3 44 -14 42 -29 77 -46 69
-33 -7 11 -91 71 -99 71 -3 0 -10 -7 -17 -15z"/>
<path d="M5150 6200 c-8 -5 -10 -10 -5 -10 6 0 17 5 25 10 8 5 11 10 5 10 -5
0 -17 -5 -25 -10z"/>
<path d="M5092 6179 c-24 -9 -107 -23 -202 -34 -30 -3 -82 -10 -115 -15 -33
-5 -100 -14 -150 -20 -151 -18 -165 -23 -125 -47 16 -11 18 -10 14 2 -4 8 0
17 7 19 8 3 111 17 229 31 246 29 325 43 360 61 29 15 16 17 -18 3z"/>
<path d="M4045 6144 c-19 -15 -22 -21 -9 -15 18 9 52 41 43 41 -2 0 -17 -12
-34 -26z"/>
<path d="M4349 6128 c-13 -18 -48 -60 -79 -93 -67 -73 -122 -174 -148 -275
-25 -93 -57 -174 -84 -214 -19 -27 -133 -162 -149 -176 -19 -17 -111 -144
-140 -195 -36 -61 -141 -306 -135 -312 2 -2 23 40 46 94 95 219 125 272 224
388 49 57 67 78 135 155 43 48 96 160 117 245 25 105 77 207 142 278 71 77
116 137 103 137 -5 0 -20 -15 -32 -32z"/>
<path d="M4114 6119 c-19 -22 -19 -22 4 -8 12 8 22 17 22 21 0 12 -6 9 -26
-13z"/>
<path d="M4426 6115 c16 -14 34 -25 39 -25 12 0 -46 49 -59 50 -5 0 4 -11 20
-25z"/>
<path d="M3053 6087 c-16 -18 -40 -51 -53 -73 -13 -21 -26 -41 -29 -44 -4 -3
-11 -14 -18 -25 -49 -83 -97 -161 -103 -165 -3 -3 -16 -22 -29 -43 -13 -21
-28 -43 -35 -50 -22 -23 -68 -87 -63 -87 13 0 116 140 192 260 44 69 101 155
127 193 52 73 56 85 11 34z"/>
<path d="M5420 6056 c-50 -19 -138 -64 -185 -96 -67 -45 -130 -62 -332 -91
-90 -12 -93 -14 -108 -45 -8 -18 -26 -83 -40 -143 -13 -61 -32 -125 -41 -143
-9 -18 -55 -73 -102 -123 -47 -49 -113 -119 -147 -155 -34 -36 -87 -96 -117
-135 -61 -76 -188 -263 -188 -275 0 -5 -3 -10 -7 -12 -8 -3 -51 -67 -72 -107
-7 -13 -8 -21 -3 -17 6 4 44 59 84 124 131 210 217 317 427 534 63 65 124 135
136 156 12 20 32 86 44 147 13 60 29 122 37 137 14 28 44 39 44 16 0 -7 5 -5
13 5 8 11 44 22 107 32 144 24 196 42 297 102 52 30 124 65 161 78 37 13 58
24 47 24 -11 0 -36 -6 -55 -13z"/>
<path d="M4537 6039 c7 -7 15 -10 18 -7 3 3 -2 9 -12 12 -14 6 -15 5 -6 -5z"/>
<path d="M4545 5957 c-53 -83 -70 -122 -110 -255 -37 -126 -65 -180 -127 -244
-59 -61 -199 -219 -221 -248 -15 -22 -114 -171 -132 -200 -3 -5 -4 -10 -1 -10
3 0 36 46 74 103 74 112 83 123 217 269 151 165 167 191 204 318 33 117 60
178 117 267 18 29 30 54 26 57 -4 2 -25 -24 -47 -57z"/>
<path d="M4650 5965 c0 -2 26 -22 58 -43 70 -47 82 -54 82 -49 0 2 -31 25 -70
51 -38 25 -70 44 -70 41z"/>
<path d="M6052 5930 c-18 -29 -15 -38 4 -12 9 13 14 25 12 27 -2 2 -9 -5 -16
-15z"/>
<path d="M2546 5775 c-20 -30 -32 -55 -28 -55 5 0 14 10 20 23 6 12 21 37 32
55 12 17 20 32 17 32 -2 0 -21 -25 -41 -55z"/>
<path d="M4905 5796 c35 -24 136 -75 130 -66 -7 11 -128 80 -141 80 -5 0 0 -6
11 -14z"/>
<path d="M7466 5774 c-4 -22 -14 -49 -21 -60 -12 -19 -12 -21 3 -20 9 0 25
-13 36 -31 20 -31 36 -42 36 -25 0 5 -8 17 -17 28 -13 13 -18 34 -17 69 1 66
-11 90 -20 39z"/>
<path d="M5982 5750 c0 -14 2 -19 5 -12 2 6 2 18 0 25 -3 6 -5 1 -5 -13z"/>
<path d="M5060 5699 c-6 -11 -10 -58 -8 -109 l3 -89 -88 -93 c-49 -51 -142
-147 -207 -213 -108 -110 -163 -179 -234 -292 -14 -24 -23 -43 -19 -43 7 0 62
80 72 105 2 6 7 12 10 15 3 3 32 39 63 80 31 41 82 98 113 125 31 28 75 70 98
94 23 24 80 83 126 132 91 95 89 91 76 200 -6 49 -5 59 13 77 16 16 18 22 6
26 -7 3 -18 -4 -24 -15z"/>
<path d="M5990 5704 c0 -10 5 -26 10 -34 8 -11 9 -7 4 15 -8 37 -14 45 -14 19z"/>
<path d="M2475 5674 c-15 -19 -25 -37 -24 -39 2 -2 17 14 32 36 35 49 29 52
-8 3z"/>
<path d="M5110 5690 c0 -6 7 -10 15 -10 8 0 15 2 15 4 0 2 -7 6 -15 10 -8 3
-15 1 -15 -4z"/>
<path d="M5273 5654 c-26 -27 -28 -34 -10 -34 12 0 43 49 35 55 -2 1 -13 -8
-25 -21z"/>
<path d="M5176 5655 c10 -8 26 -14 34 -14 9 0 4 6 -10 14 -33 19 -49 19 -24 0z"/>
<path d="M7360 5643 c0 -5 4 -15 10 -23 11 -18 25 -7 17 15 -6 15 -27 21 -27
8z"/>
<path d="M7471 5624 c0 -11 3 -14 6 -6 3 7 2 16 -1 19 -3 4 -6 -2 -5 -13z"/>
<path d="M5330 5611 c0 -6 4 -13 10 -16 6 -3 7 1 4 9 -7 18 -14 21 -14 7z"/>
<path d="M2639 5503 c-133 -181 -137 -192 -284 -823 -55 -237 -86 -367 -104
-440 -11 -41 -33 -142 -50 -225 -18 -82 -41 -193 -52 -245 -22 -101 -88 -340
-140 -503 -17 -54 -29 -101 -26 -103 5 -5 54 149 115 361 45 154 60 217 92
375 37 180 57 272 78 355 12 44 37 152 57 240 20 88 52 223 70 300 19 77 43
183 55 235 35 152 79 280 122 355 40 68 123 183 143 197 6 5 6 8 -1 8 -6 0
-40 -39 -75 -87z"/>
<path d="M2346 5508 l-18 -33 21 25 c18 22 26 40 18 40 -1 0 -11 -15 -21 -32z"/>
<path d="M5210 5526 c28 -17 60 -22 45 -7 -6 5 -23 12 -40 16 l-30 6 25 -15z"/>
<path d="M6475 5529 c-11 -17 1 -21 15 -4 8 9 8 15 2 15 -6 0 -14 -5 -17 -11z"/>
<path d="M2290 5418 c-16 -29 -30 -57 -30 -62 0 -12 1 -10 38 57 18 31 30 57
27 57 -2 0 -18 -24 -35 -52z"/>
<path d="M7574 5281 c7 -11 46 -35 46 -28 0 3 -12 12 -26 22 -15 9 -23 12 -20
6z"/>
<path d="M8420 5263 c0 -5 7 -18 15 -29 13 -18 14 -18 8 4 -5 22 -23 41 -23
25z"/>
<path d="M2211 5214 c0 -11 3 -14 6 -6 3 7 2 16 -1 19 -3 4 -6 -2 -5 -13z"/>
<path d="M1822 5204 c-39 -20 -52 -38 -17 -23 17 7 34 16 39 21 16 13 2 15
-22 2z"/>
<path d="M8435 5180 c10 -11 20 -18 23 -15 7 6 -18 35 -31 35 -5 0 -2 -9 8
-20z"/>
<path d="M2201 5174 c0 -11 3 -14 6 -6 3 7 2 16 -1 19 -3 4 -6 -2 -5 -13z"/>
<path d="M2192 5130 c0 -14 2 -19 5 -12 2 6 2 18 0 25 -3 6 -5 1 -5 -13z"/>
<path d="M7840 5081 c0 -5 7 -11 14 -14 10 -4 13 -1 9 9 -6 15 -23 19 -23 5z"/>
<path d="M2171 5034 c0 -11 3 -14 6 -6 3 7 2 16 -1 19 -3 4 -6 -2 -5 -13z"/>
<path d="M10291 4984 c0 -11 3 -14 6 -6 3 7 2 16 -1 19 -3 4 -6 -2 -5 -13z"/>
<path d="M3930 4970 c-6 -11 -8 -20 -6 -20 3 0 10 9 16 20 6 11 8 20 6 20 -3
0 -10 -9 -16 -20z"/>
<path d="M7490 4960 c0 -5 5 -10 11 -10 5 0 7 5 4 10 -3 6 -8 10 -11 10 -2 0
-4 -4 -4 -10z"/>
<path d="M3900 4929 c0 -5 5 -7 10 -4 6 3 10 8 10 11 0 2 -4 4 -10 4 -5 0 -10
-5 -10 -11z"/>
<path d="M7471 4925 c0 -11 6 -29 14 -39 8 -11 15 -15 15 -10 0 6 -4 14 -9 20
-5 5 -11 18 -14 29 l-5 20 -1 -20z"/>
<path d="M3880 4895 c-6 -8 -10 -19 -8 -26 2 -6 9 0 16 15 13 29 10 33 -8 11z"/>
<path d="M2142 4880 c0 -14 2 -19 5 -12 2 6 2 18 0 25 -3 6 -5 1 -5 -13z"/>
<path d="M4540 4852 c-8 -9 -28 -35 -44 -57 -17 -22 -32 -42 -35 -45 -4 -3
-12 -14 -20 -25 -14 -21 29 23 66 67 26 32 57 78 51 78 -2 0 -10 -8 -18 -18z"/>
<path d="M7505 4840 c8 -27 35 -63 42 -56 3 3 -7 22 -22 43 -21 30 -25 33 -20
13z"/>
<path d="M2131 4834 c0 -11 3 -14 6 -6 3 7 2 16 -1 19 -3 4 -6 -2 -5 -13z"/>
<path d="M2122 4790 c0 -14 2 -19 5 -12 2 6 2 18 0 25 -3 6 -5 1 -5 -13z"/>
<path d="M1707 4793 c-4 -3 -7 -11 -7 -17 0 -6 5 -5 12 2 6 6 9 14 7 17 -3 3
-9 2 -12 -2z"/>
<path d="M3810 4777 c-33 -53 -52 -87 -47 -87 6 0 68 102 65 106 -2 2 -10 -7
-18 -19z"/>
<path d="M7560 4775 c0 -5 5 -17 10 -25 5 -8 10 -10 10 -5 0 6 -5 17 -10 25
-5 8 -10 11 -10 5z"/>
<path d="M8086 4767 c3 -10 9 -15 12 -12 3 3 0 11 -7 18 -10 9 -11 8 -5 -6z"/>
<path d="M2111 4744 c0 -11 3 -14 6 -6 3 7 2 16 -1 19 -3 4 -6 -2 -5 -13z"/>
<path d="M1832 4710 c0 -14 2 -19 5 -12 2 6 2 18 0 25 -3 6 -5 1 -5 -13z"/>
<path d="M3522 4700 c-18 -29 -15 -38 4 -12 9 13 14 25 12 27 -2 2 -9 -5 -16
-15z"/>
<path d="M7851 4704 c0 -11 3 -14 6 -6 3 7 2 16 -1 19 -3 4 -6 -2 -5 -13z"/>
<path d="M4052 4688 c-7 -7 -12 -18 -12 -25 0 -7 -4 -13 -10 -13 -5 0 -10 -5
-10 -10 0 -6 -10 -27 -23 -48 -38 -61 -87 -152 -83 -152 3 0 110 176 153 253
6 11 -2 8 -15 -5z"/>
<path d="M4394 4667 c-45 -53 -89 -109 -93 -120 -4 -12 31 29 92 106 44 54 44
64 1 14z"/>
<path d="M2095 4660 c-4 -17 -5 -34 -2 -36 2 -3 7 10 11 27 8 42 0 50 -9 9z"/>
<path d="M1842 4665 c0 -11 4 -31 8 -45 6 -20 8 -21 8 -5 0 11 -4 31 -8 45 -6
20 -8 21 -8 5z"/>
<path d="M3739 4652 c-8 -15 -29 -53 -46 -85 -34 -60 -44 -87 -20 -52 24 35
88 158 84 161 -2 2 -10 -8 -18 -24z"/>
<path d="M2081 4594 c0 -11 3 -14 6 -6 3 7 2 16 -1 19 -3 4 -6 -2 -5 -13z"/>
<path d="M1861 4574 c0 -11 3 -14 6 -6 3 7 2 16 -1 19 -3 4 -6 -2 -5 -13z"/>
<path d="M3236 4565 c-9 -26 -7 -32 5 -12 6 10 9 21 6 23 -2 3 -7 -2 -11 -11z"/>
<path d="M2066 4534 c-4 -20 -5 -38 -3 -40 3 -3 8 11 11 32 4 20 5 38 3 40 -3
3 -8 -11 -11 -32z"/>
<path d="M4269 4513 c-8 -10 -21 -27 -29 -38 -15 -20 -15 -20 9 0 21 18 47 55
38 55 -2 0 -10 -8 -18 -17z"/>
<path d="M10561 4494 c0 -11 3 -14 6 -6 3 7 2 16 -1 19 -3 4 -6 -2 -5 -13z"/>
<path d="M3606 4384 c-26 -58 -45 -108 -43 -111 2 -2 10 11 18 29 7 18 28 66
46 107 19 40 32 75 30 78 -3 2 -26 -44 -51 -103z"/>
<path d="M3382 4425 c-17 -37 -14 -45 4 -12 9 16 14 31 11 33 -2 2 -9 -7 -15
-21z"/>
<path d="M2042 4410 c0 -14 2 -19 5 -12 2 6 2 18 0 25 -3 6 -5 1 -5 -13z"/>
<path d="M1731 4390 c0 -8 4 -22 9 -30 12 -18 12 -2 0 25 -6 13 -9 15 -9 5z"/>
<path d="M4137 4339 c-16 -21 -26 -39 -24 -39 7 0 59 71 56 75 -2 2 -17 -14
-32 -36z"/>
<path d="M7826 4344 c-3 -9 -4 -20 0 -25 10 -17 -10 -9 -34 14 l-25 22 12 -22
c6 -12 18 -26 26 -31 9 -4 20 -21 25 -38 7 -24 9 -18 8 34 -1 34 -2 62 -3 62
-2 0 -6 -7 -9 -16z"/>
<path d="M2022 4330 c0 -14 2 -19 5 -12 2 6 2 18 0 25 -3 6 -5 1 -5 -13z"/>
<path d="M6482 4330 c0 -14 2 -19 5 -12 2 6 2 18 0 25 -3 6 -5 1 -5 -13z"/>
<path d="M1751 4314 c0 -11 3 -14 6 -6 3 7 2 16 -1 19 -3 4 -6 -2 -5 -13z"/>
<path d="M6466 4259 c-4 -23 -5 -44 -2 -46 2 -2 7 14 11 37 4 23 5 43 2 46 -2
3 -7 -14 -11 -37z"/>
<path d="M7511 4293 c0 -5 14 -19 32 -32 l32 -25 -29 32 c-31 33 -36 37 -35
25z"/>
<path d="M3710 4275 c-7 -9 -11 -17 -9 -20 3 -2 10 5 17 15 14 24 10 26 -8 5z"/>
<path d="M4080 4260 c-12 -16 -19 -30 -16 -30 2 0 14 14 26 30 12 17 19 30 16
30 -2 0 -14 -13 -26 -30z"/>
<path d="M7292 4250 c0 -14 2 -19 5 -12 2 6 2 18 0 25 -3 6 -5 1 -5 -13z"/>
<path d="M3540 4239 c0 -3 -11 -34 -25 -69 -14 -35 -21 -60 -16 -55 14 15 53
117 46 123 -3 3 -5 3 -5 1z"/>
<path d="M6760 4230 c0 -8 5 -22 10 -30 9 -13 10 -13 10 0 0 8 -5 22 -10 30
-9 13 -10 13 -10 0z"/>
<path d="M3656 4204 c-9 -24 -2 -26 12 -4 7 11 8 20 3 20 -5 0 -12 -7 -15 -16z"/>
<path d="M7700 4216 c0 -2 8 -10 18 -17 15 -13 16 -12 3 4 -13 16 -21 21 -21
13z"/>
<path d="M1991 4194 c0 -11 3 -14 6 -6 3 7 2 16 -1 19 -3 4 -6 -2 -5 -13z"/>
<path d="M4026 4178 l-18 -33 21 25 c18 22 26 40 18 40 -1 0 -11 -15 -21 -32z"/>
<path d="M6651 4194 c0 -11 3 -14 6 -6 3 7 2 16 -1 19 -3 4 -6 -2 -5 -13z"/>
<path d="M7271 4203 c0 -4 4 -17 9 -28 8 -19 9 -19 9 2 1 12 -3 25 -9 28 -5 3
-10 3 -9 -2z"/>
<path d="M3291 4184 c0 -11 3 -14 6 -6 3 7 2 16 -1 19 -3 4 -6 -2 -5 -13z"/>
<path d="M7828 4170 c2 -16 6 -30 8 -30 2 0 4 14 4 30 0 17 -4 30 -8 30 -5 0
-7 -13 -4 -30z"/>
<path d="M6452 4170 c0 -14 2 -19 5 -12 2 6 2 18 0 25 -3 6 -5 1 -5 -13z"/>
<path d="M2865 4159 c-4 -6 -5 -12 -2 -15 2 -3 7 2 10 11 7 17 1 20 -8 4z"/>
<path d="M3050 4150 c-6 -11 -8 -20 -6 -20 3 0 10 9 16 20 6 11 8 20 6 20 -3
0 -10 -9 -16 -20z"/>
<path d="M6216 4143 c-4 -16 -18 -63 -32 -107 -14 -43 -23 -80 -21 -82 2 -2
16 33 30 78 31 97 41 138 34 138 -3 0 -8 -12 -11 -27z"/>
<path d="M3276 4145 c-9 -26 -7 -32 5 -12 6 10 9 21 6 23 -2 3 -7 -2 -11 -11z"/>
<path d="M3605 4120 c-3 -5 -1 -10 4 -10 6 0 11 5 11 10 0 6 -2 10 -4 10 -3 0
-8 -4 -11 -10z"/>
<path d="M1971 4094 c0 -11 3 -14 6 -6 3 7 2 16 -1 19 -3 4 -6 -2 -5 -13z"/>
<path d="M3256 4095 c-9 -26 -7 -32 5 -12 6 10 9 21 6 23 -2 3 -7 -2 -11 -11z"/>
<path d="M3015 4089 c-4 -6 -5 -12 -2 -15 2 -3 7 2 10 11 7 17 1 20 -8 4z"/>
<path d="M3565 4043 c-41 -84 -86 -195 -81 -201 5 -4 27 44 51 109 7 19 25 59
40 88 14 29 25 55 22 57 -2 2 -16 -22 -32 -53z"/>
<path d="M3955 4074 c-9 -14 -15 -27 -13 -30 2 -2 12 10 22 26 21 37 15 40 -9
4z"/>
<path d="M6951 4084 c0 -11 3 -14 6 -6 3 7 2 16 -1 19 -3 4 -6 -2 -5 -13z"/>
<path d="M1961 4054 c0 -11 3 -14 6 -6 3 7 2 16 -1 19 -3 4 -6 -2 -5 -13z"/>
<path d="M6546 4014 c-4 -31 -5 -59 -2 -61 2 -3 8 21 11 52 4 31 5 58 3 61 -3
2 -8 -21 -12 -52z"/>
<path d="M7831 4054 c0 -11 3 -14 6 -6 3 7 2 16 -1 19 -3 4 -6 -2 -5 -13z"/>
<path d="M6641 4044 c0 -11 3 -14 6 -6 3 7 2 16 -1 19 -3 4 -6 -2 -5 -13z"/>
<path d="M3226 4015 c-9 -26 -7 -32 5 -12 6 10 9 21 6 23 -2 3 -7 -2 -11 -11z"/>
<path d="M7836 4005 c4 -8 8 -15 10 -15 2 0 4 7 4 15 0 8 -4 15 -10 15 -5 0
-7 -7 -4 -15z"/>
<path d="M2955 3980 c-9 -16 -13 -30 -11 -30 3 0 12 14 21 30 9 17 13 30 11
30 -3 0 -12 -13 -21 -30z"/>
<path d="M6824 3964 c4 -22 8 -52 10 -69 4 -42 16 -75 26 -75 10 0 5 45 -11
94 -5 16 -9 39 -9 52 0 13 -5 26 -11 30 -8 5 -10 -5 -5 -32z"/>
<path d="M3889 3963 c-22 -46 -22 -50 1 -15 13 18 20 35 18 37 -3 3 -11 -7
-19 -22z"/>
<path d="M7351 3964 c0 -11 3 -14 6 -6 3 7 2 16 -1 19 -3 4 -6 -2 -5 -13z"/>
<path d="M3192 3940 c-18 -29 -15 -38 4 -12 9 13 14 25 12 27 -2 2 -9 -5 -16
-15z"/>
<path d="M7460 3940 c0 -11 4 -20 9 -20 5 0 7 9 4 20 -3 11 -7 20 -9 20 -2 0
-4 -9 -4 -20z"/>
<path d="M2922 3920 c-18 -29 -15 -38 4 -12 9 13 14 25 12 27 -2 2 -9 -5 -16
-15z"/>
<path d="M6146 3925 c-3 -9 -6 -22 -5 -28 0 -7 5 -1 10 12 5 13 8 26 5 28 -2
2 -6 -3 -10 -12z"/>
<path d="M6532 3920 c0 -14 2 -19 5 -12 2 6 2 18 0 25 -3 6 -5 1 -5 -13z"/>
<path d="M1931 3914 c0 -11 3 -14 6 -6 3 7 2 16 -1 19 -3 4 -6 -2 -5 -13z"/>
<path d="M3845 3879 c-9 -17 -15 -33 -13 -35 3 -2 12 12 21 31 21 43 13 47 -8
4z"/>
<path d="M6760 3895 c0 -8 4 -15 10 -15 5 0 7 7 4 15 -4 8 -8 15 -10 15 -2 0
-4 -7 -4 -15z"/>
<path d="M7171 3883 c7 -12 15 -20 18 -17 3 2 -3 12 -13 22 -17 16 -18 16 -5
-5z"/>
<path d="M3145 3854 c-9 -15 -12 -23 -6 -20 11 7 35 46 28 46 -3 0 -12 -12
-22 -26z"/>
<path d="M6522 3860 c0 -14 2 -19 5 -12 2 6 2 18 0 25 -3 6 -5 1 -5 -13z"/>
<path d="M1921 3854 c0 -11 3 -14 6 -6 3 7 2 16 -1 19 -3 4 -6 -2 -5 -13z"/>
<path d="M2855 3804 c-9 -14 -15 -27 -13 -30 2 -2 12 10 22 26 21 37 15 40 -9
4z"/>
<path d="M3456 3775 c-37 -128 -45 -163 -52 -210 -4 -27 -9 -59 -11 -70 -10
-42 -14 -262 -6 -304 6 -31 8 1 8 110 1 107 6 183 19 249 18 92 60 252 72 271
3 5 1 9 -5 9 -5 0 -17 -25 -25 -55z"/>
<path d="M3801 3785 c-29 -62 -26 -71 4 -11 14 27 23 51 21 53 -2 2 -13 -17
-25 -42z"/>
<path d="M6106 3815 c-9 -26 -7 -32 5 -12 6 10 9 21 6 23 -2 3 -7 -2 -11 -11z"/>
<path d="M6511 3814 c0 -11 3 -14 6 -6 3 7 2 16 -1 19 -3 4 -6 -2 -5 -13z"/>
<path d="M7310 3823 c0 -5 7 -18 15 -29 13 -18 14 -18 8 4 -5 22 -23 41 -23
25z"/>
<path d="M3110 3805 c-7 -9 -11 -17 -9 -20 3 -2 10 5 17 15 14 24 10 26 -8 5z"/>
<path d="M3181 3773 c-1 -28 3 -54 8 -57 16 -10 18 18 5 64 l-12 45 -1 -52z"/>
<path d="M7380 3816 c0 -2 7 -9 15 -16 13 -11 14 -10 9 4 -5 14 -24 23 -24 12z"/>
<path d="M1901 3764 c0 -11 3 -14 6 -6 3 7 2 16 -1 19 -3 4 -6 -2 -5 -13z"/>
<path d="M7432 3760 c0 -14 2 -19 5 -12 2 6 2 18 0 25 -3 6 -5 1 -5 -13z"/>
<path d="M1891 3714 c0 -11 3 -14 6 -6 3 7 2 16 -1 19 -3 4 -6 -2 -5 -13z"/>
<path d="M6062 3579 c-29 -72 -51 -133 -49 -135 2 -3 13 19 25 48 11 29 35 86
52 127 17 41 29 78 28 83 -2 5 -27 -51 -56 -123z"/>
<path d="M7403 3703 c-15 -6 -17 -33 -3 -33 6 0 9 6 8 13 -2 6 5 11 14 11 10
-1 15 2 12 7 -6 10 -12 10 -31 2z"/>
<path d="M11768 3703 c7 -3 16 -2 19 1 4 3 -2 6 -13 5 -11 0 -14 -3 -6 -6z"/>
<path d="M3751 3668 c-5 -13 -16 -40 -25 -62 -17 -42 -21 -60 -6 -36 15 26 50
120 45 120 -3 0 -9 -10 -14 -22z"/>
<path d="M3042 3452 c-24 -48 -35 -78 -26 -67 18 22 76 146 71 151 -1 2 -22
-36 -45 -84z"/>
<path d="M3125 3450 c7 -136 38 -266 91 -386 26 -58 48 -103 51 -101 2 2 -17
51 -41 108 -53 122 -73 202 -92 359 l-13 115 4 -95z"/>
<path d="M2924 3465 c4 -73 55 -190 68 -155 5 14 -2 34 -23 69 -17 26 -34 70
-39 97 l-9 49 3 -60z"/>
<path d="M3680 3480 c-6 -23 -9 -44 -7 -46 2 -3 9 14 15 38 6 23 9 44 7 46 -2
2 -9 -15 -15 -38z"/>
<path d="M10950 3491 c0 -6 4 -13 10 -16 6 -3 7 1 4 9 -7 18 -14 21 -14 7z"/>
<path d="M1851 3474 c0 -11 3 -14 6 -6 3 7 2 16 -1 19 -3 4 -6 -2 -5 -13z"/>
<path d="M1842 3420 c0 -14 2 -19 5 -12 2 6 2 18 0 25 -3 6 -5 1 -5 -13z"/>
<path d="M5996 3415 c-9 -26 -7 -32 5 -12 6 10 9 21 6 23 -2 3 -7 -2 -11 -11z"/>
<path d="M3655 3390 c-4 -17 -5 -34 -2 -36 2 -3 7 10 11 27 8 42 0 50 -9 9z"/>
<path d="M1832 3360 c0 -14 2 -19 5 -12 2 6 2 18 0 25 -3 6 -5 1 -5 -13z"/>
<path d="M3641 3324 c0 -11 3 -14 6 -6 3 7 2 16 -1 19 -3 4 -6 -2 -5 -13z"/>
<path d="M1611 3304 c0 -11 3 -14 6 -6 3 7 2 16 -1 19 -3 4 -6 -2 -5 -13z"/>
<path d="M3622 3233 c-7 -40 -12 -82 -11 -95 1 -13 7 15 15 61 8 47 13 90 11
95 -2 6 -9 -22 -15 -61z"/>
<path d="M2952 3260 c-15 -38 -64 -208 -68 -235 0 -5 -4 -18 -9 -27 -9 -22 -9
-55 0 -88 5 -21 -2 -16 -39 23 -54 58 -102 152 -116 227 l-9 55 4 -65 c6 -78
45 -166 110 -249 49 -62 54 -73 29 -69 -22 4 -37 -49 -60 -202 -11 -79 -21
-117 -28 -112 -6 3 1 -9 17 -27 15 -18 27 -37 27 -42 0 -19 -82 56 -127 116
-59 78 -88 136 -117 237 -29 98 -34 85 -7 -19 36 -138 86 -226 199 -346 55
-59 64 -82 20 -53 l-24 16 -4 -103 c-2 -56 -4 -134 -3 -174 0 -61 -2 -70 -16
-65 -9 3 1 -12 23 -34 64 -66 62 -80 -4 -28 -102 80 -183 187 -260 344 -56
111 -78 169 -106 275 -15 53 -22 72 -19 45 9 -65 69 -240 120 -349 61 -128
111 -199 224 -317 53 -55 103 -112 113 -125 9 -14 54 -47 100 -73 45 -27 135
-83 198 -125 138 -91 132 -88 126 -59 -3 12 -8 87 -10 166 -6 163 -9 169 -99
245 -59 50 -221 170 -284 212 -24 15 -43 32 -43 37 0 6 11 3 25 -6 14 -9 37
-24 53 -33 64 -41 251 -192 298 -241 l51 -53 6 83 c7 99 0 278 -14 331 -15 55
-61 102 -163 162 -92 54 -148 103 -159 140 -6 20 -6 20 6 0 24 -39 79 -85 150
-126 40 -23 92 -61 117 -85 l45 -43 1 39 c1 22 -2 37 -7 34 -5 -3 -6 2 -3 10
3 9 1 16 -6 16 -6 0 -9 4 -6 9 11 17 -52 87 -137 155 -48 38 -87 73 -87 77 0
5 -5 9 -12 9 -6 0 1 -13 17 -30 16 -16 27 -31 24 -33 -2 -2 -16 -8 -31 -15
-24 -10 -28 -9 -33 8 -4 11 -10 20 -15 20 -4 0 -11 10 -15 23 -4 12 -8 24 -10
27 -1 3 -6 14 -10 24 -11 24 16 225 51 376 24 108 27 162 6 110z m116 -769
c84 -51 95 -60 122 -96 8 -11 -6 -2 -31 21 -24 22 -73 55 -107 73 -67 36 -142
96 -142 114 0 6 17 -5 38 -25 20 -20 74 -59 120 -87z m72 -176 c19 -19 32 -35
29 -35 -3 0 -20 16 -39 35 -19 19 -32 35 -29 35 3 0 20 -16 39 -35z m-25 -15
c21 -22 37 -40 34 -40 -3 0 -23 18 -44 40 -21 22 -37 40 -34 40 3 0 23 -18 44
-40z m85 -61 c15 -28 5 -23 -15 7 -9 15 -12 23 -6 20 6 -4 16 -16 21 -27z
m-288 -85 c90 -62 218 -159 258 -196 53 -49 52 -60 -2 -13 -31 28 -124 95
-207 150 -83 55 -151 103 -151 108 0 16 23 5 102 -49z"/>
<path d="M2301 3243 c-10 -26 -10 -27 4 -9 8 11 15 23 15 28 0 15 -7 8 -19
-19z"/>
<path d="M1591 3234 c0 -11 3 -14 6 -6 3 7 2 16 -1 19 -3 4 -6 -2 -5 -13z"/>
<path d="M1812 3230 c0 -14 2 -19 5 -12 2 6 2 18 0 25 -3 6 -5 1 -5 -13z"/>
<path d="M11689 3213 c-13 -16 -12 -17 4 -4 16 13 21 21 13 21 -2 0 -10 -8
-17 -17z"/>
<path d="M9857 3183 c3 -66 4 -70 12 -48 7 17 9 16 15 -12 4 -18 11 -35 16
-38 11 -7 -8 77 -21 90 -5 5 -9 17 -9 27 0 10 -3 18 -7 18 -5 0 -7 -17 -6 -37z"/>
<path d="M1782 3119 c-12 -45 -21 -83 -19 -85 6 -6 49 144 45 156 -2 6 -13
-26 -26 -71z"/>
<path d="M11625 3164 c-31 -27 -33 -31 -9 -15 28 18 62 51 53 51 -2 0 -22 -16
-44 -36z"/>
<path d="M2255 3150 c-9 -16 -13 -30 -11 -30 3 0 12 14 21 30 9 17 13 30 11
30 -3 0 -12 -13 -21 -30z"/>
<path d="M2990 3150 c0 -29 58 -136 121 -220 35 -47 76 -105 91 -130 15 -25
28 -38 28 -30 0 17 -36 73 -125 195 -32 44 -71 107 -86 140 -15 33 -28 53 -29
45z"/>
<path d="M3402 3120 c0 -14 2 -19 5 -12 2 6 2 18 0 25 -3 6 -5 1 -5 -13z"/>
<path d="M3851 3114 c0 -11 3 -14 6 -6 3 7 2 16 -1 19 -3 4 -6 -2 -5 -13z"/>
<path d="M11545 3104 l-30 -26 33 22 c17 12 32 23 32 26 0 7 -4 5 -35 -22z"/>
<path d="M1956 3105 c-3 -9 -6 -22 -5 -28 0 -7 5 -1 10 12 5 13 8 26 5 28 -2
2 -6 -3 -10 -12z"/>
<path d="M3602 3085 c0 -16 2 -22 5 -12 2 9 2 23 0 30 -3 6 -5 -1 -5 -18z"/>
<path d="M11463 3054 c-24 -14 -43 -27 -43 -30 0 -6 67 33 85 48 17 15 1 8
-42 -18z"/>
<path d="M2206 3053 c-6 -14 -5 -15 5 -6 7 7 10 15 7 18 -3 3 -9 -2 -12 -12z"/>
<path d="M1936 3038 c-3 -13 -5 -32 -5 -43 1 -11 5 -2 10 19 10 42 6 62 -5 24z"/>
<path d="M10830 3055 c0 -5 5 -17 10 -25 5 -8 10 -10 10 -5 0 6 -5 17 -10 25
-5 8 -10 11 -10 5z"/>
<path d="M9907 3038 c-2 -7 -1 -22 4 -33 6 -16 8 -14 8 13 1 33 -4 41 -12 20z"/>
<path d="M3593 2960 c0 -41 2 -58 4 -37 2 20 2 54 0 75 -2 20 -4 3 -4 -38z"/>
<path d="M1746 2989 c-8 -42 0 -50 9 -9 4 17 5 34 2 36 -2 3 -7 -10 -11 -27z"/>
<path d="M1922 2940 c0 -19 2 -27 5 -17 2 9 2 25 0 35 -3 9 -5 1 -5 -18z"/>
<path d="M11266 2945 c-11 -8 -16 -15 -10 -15 5 0 18 7 28 15 11 8 16 15 10
15 -5 0 -18 -7 -28 -15z"/>
<path d="M2532 2920 c0 -19 2 -27 5 -17 2 9 2 25 0 35 -3 9 -5 1 -5 -18z"/>
<path d="M1732 2920 c0 -14 2 -19 5 -12 2 6 2 18 0 25 -3 6 -5 1 -5 -13z"/>
<path d="M2161 2924 c0 -11 3 -14 6 -6 3 7 2 16 -1 19 -3 4 -6 -2 -5 -13z"/>
<path d="M3802 2910 c0 -14 2 -19 5 -12 2 6 2 18 0 25 -3 6 -5 1 -5 -13z"/>
<path d="M1715 2814 c-11 -110 15 -388 37 -409 8 -7 9 -5 5 7 -16 45 -30 198
-31 331 0 81 -1 147 -2 147 -1 0 -5 -34 -9 -76z"/>
<path d="M2920 2880 c0 -8 13 -37 29 -65 28 -49 71 -93 181 -184 29 -25 62
-60 73 -78 11 -19 21 -32 24 -29 10 9 -49 87 -94 123 -99 80 -160 145 -186
195 -14 29 -26 46 -27 38z"/>
<path d="M2351 2854 c0 -11 3 -14 6 -6 3 7 2 16 -1 19 -3 4 -6 -2 -5 -13z"/>
<path d="M1913 2810 c0 -30 2 -43 4 -27 2 15 2 39 0 55 -2 15 -4 2 -4 -28z"/>
<path d="M2144 2750 c0 -52 1 -74 3 -47 2 26 2 68 0 95 -2 26 -3 4 -3 -48z"/>
<path d="M3782 2820 c0 -14 2 -19 5 -12 2 6 2 18 0 25 -3 6 -5 1 -5 -13z"/>
<path d="M3011 2784 c13 -20 79 -80 79 -72 0 2 -21 24 -47 48 -25 25 -40 36
-32 24z"/>
<path d="M2353 2750 c0 -25 2 -35 4 -22 2 12 2 32 0 45 -2 12 -4 2 -4 -23z"/>
<path d="M3812 2760 c0 -14 2 -19 5 -12 2 6 2 18 0 25 -3 6 -5 1 -5 -13z"/>
<path d="M3771 2754 c0 -11 3 -14 6 -6 3 7 2 16 -1 19 -3 4 -6 -2 -5 -13z"/>
<path d="M1922 2720 c0 -14 2 -19 5 -12 2 6 2 18 0 25 -3 6 -5 1 -5 -13z"/>
<path d="M10185 2720 c-4 -12 -5 -24 -2 -27 3 -2 8 5 12 17 4 12 5 24 2 27 -3
2 -8 -5 -12 -17z"/>
<path d="M3802 2685 c0 -16 2 -22 5 -12 2 9 2 23 0 30 -3 6 -5 -1 -5 -18z"/>
<path d="M10806 2695 c4 -8 8 -15 10 -15 2 0 4 7 4 15 0 8 -4 15 -10 15 -5 0
-7 -7 -4 -15z"/>
<path d="M3762 2675 c0 -16 2 -22 5 -12 2 9 2 23 0 30 -3 6 -5 -1 -5 -18z"/>
<path d="M3160 2648 c24 -27 45 -48 47 -48 8 0 0 9 -44 50 l-48 45 45 -47z"/>
<path d="M7831 2674 c0 -11 3 -14 6 -6 3 7 2 16 -1 19 -3 4 -6 -2 -5 -13z"/>
<path d="M7952 2670 c0 -14 2 -19 5 -12 2 6 2 18 0 25 -3 6 -5 1 -5 -13z"/>
<path d="M10201 2674 c0 -11 3 -14 6 -6 3 7 2 16 -1 19 -3 4 -6 -2 -5 -13z"/>
<path d="M10166 2663 c-6 -14 -5 -15 5 -6 7 7 10 15 7 18 -3 3 -9 -2 -12 -12z"/>
<path d="M2152 2630 c0 -14 2 -19 5 -12 2 6 2 18 0 25 -3 6 -5 1 -5 -13z"/>
<path d="M3793 2600 c0 -25 2 -35 4 -22 2 12 2 32 0 45 -2 12 -4 2 -4 -23z"/>
<path d="M7821 2614 c0 -11 3 -14 6 -6 3 7 2 16 -1 19 -3 4 -6 -2 -5 -13z"/>
<path d="M7942 2600 c0 -14 2 -19 5 -12 2 6 2 18 0 25 -3 6 -5 1 -5 -13z"/>
<path d="M3756 2370 c2 -129 8 -257 14 -285 8 -43 8 -40 3 25 -3 41 -9 170
-13 285 l-8 210 4 -235z"/>
<path d="M2160 2587 c0 -40 78 -220 236 -542 92 -187 187 -371 213 -410 25
-38 93 -117 151 -174 104 -103 166 -149 368 -269 56 -34 114 -69 127 -78 24
-16 25 -16 25 8 0 17 -9 29 -27 38 -94 47 -335 199 -373 234 -25 23 -75 68
-112 100 -120 102 -180 195 -372 580 -96 193 -189 392 -205 441 -17 50 -31 82
-31 72z"/>
<path d="M3573 2510 c0 -47 2 -66 4 -42 2 23 2 61 0 85 -2 23 -4 4 -4 -43z"/>
<path d="M10472 2495 c0 -16 2 -22 5 -12 2 9 2 23 0 30 -3 6 -5 -1 -5 -18z"/>
<path d="M3783 2440 c0 -41 2 -58 4 -37 2 20 2 54 0 75 -2 20 -4 3 -4 -38z"/>
<path d="M2001 2440 c0 -8 4 -22 9 -30 12 -18 12 -2 0 25 -6 13 -9 15 -9 5z"/>
<path d="M2020 2383 c0 -32 92 -288 160 -449 44 -102 80 -192 80 -200 0 -10
-9 -12 -32 -9 l-33 5 35 -10 c19 -6 45 -22 58 -37 13 -14 24 -24 26 -22 4 5
-141 345 -172 407 -13 23 -43 104 -68 180 -45 133 -54 156 -54 135z"/>
<path d="M9909 2293 c-13 -16 -12 -17 4 -4 16 13 21 21 13 21 -2 0 -10 -8 -17
-17z"/>
<path d="M7902 2260 c0 -14 2 -19 5 -12 2 6 2 18 0 25 -3 6 -5 1 -5 -13z"/>
<path d="M3793 2210 c0 -25 2 -35 4 -22 2 12 2 32 0 45 -2 12 -4 2 -4 -23z"/>
<path d="M3583 2195 c0 -27 2 -38 4 -22 2 15 2 37 0 50 -2 12 -4 0 -4 -28z"/>
<path d="M7892 2190 c0 -14 2 -19 5 -12 2 6 2 18 0 25 -3 6 -5 1 -5 -13z"/>
<path d="M3421 2164 c0 -11 3 -14 6 -6 3 7 2 16 -1 19 -3 4 -6 -2 -5 -13z"/>
<path d="M3802 2115 c0 -16 2 -22 5 -12 2 9 2 23 0 30 -3 6 -5 -1 -5 -18z"/>
<path d="M3432 2105 c0 -16 4 -43 8 -60 11 -42 11 -1 1 50 -7 34 -9 35 -9 10z"/>
<path d="M3591 2044 c0 -11 3 -14 6 -6 3 7 2 16 -1 19 -3 4 -6 -2 -5 -13z"/>
<path d="M3783 1980 c0 -30 2 -43 4 -27 2 15 2 39 0 55 -2 15 -4 2 -4 -28z"/>
<path d="M3451 1994 c0 -11 3 -14 6 -6 3 7 2 16 -1 19 -3 4 -6 -2 -5 -13z"/>
<path d="M1658 1943 c6 -2 18 -2 25 0 6 3 1 5 -13 5 -14 0 -19 -2 -12 -5z"/>
<path d="M2724 1927 c15 -21 17 -43 15 -112 -2 -47 -1 -86 2 -88 3 -1 9 -30
12 -65 5 -49 4 -62 -6 -57 -6 4 -5 1 4 -7 24 -20 13 -41 -14 -27 -12 6 20 -32
72 -84 93 -94 138 -126 418 -294 l53 -32 -4 152 c-3 84 -7 159 -11 169 -3 9
-61 49 -127 90 -175 106 -301 191 -306 206 -4 14 -12 19 242 -144 98 -63 180
-113 182 -111 2 1 1 12 -2 23 -4 14 -76 65 -207 147 -119 74 -213 140 -229
160 -15 19 -46 49 -69 68 -40 32 -41 32 -25 6z"/>
<path d="M1708 1933 c7 -3 16 -2 19 1 4 3 -2 6 -13 5 -11 0 -14 -3 -6 -6z"/>
<path d="M1748 1923 c7 -3 16 -2 19 1 4 3 -2 6 -13 5 -11 0 -14 -3 -6 -6z"/>
<path d="M3788 1885 c2 -19 6 -35 8 -35 2 0 4 16 4 35 0 19 -4 35 -8 35 -4 0
-6 -16 -4 -35z"/>
<path d="M1863 1893 c9 -2 23 -2 30 0 6 3 -1 5 -18 5 -16 0 -22 -2 -12 -5z"/>
<path d="M1923 1883 c9 -2 23 -2 30 0 6 3 -1 5 -18 5 -16 0 -22 -2 -12 -5z"/>
<path d="M1988 1873 c12 -2 30 -2 40 0 9 3 -1 5 -23 4 -22 0 -30 -2 -17 -4z"/>
<path d="M2051 1866 c2 -2 22 -6 44 -9 28 -5 34 -4 20 3 -19 8 -73 14 -64 6z"/>
<path d="M2145 1850 c-3 -5 1 -10 10 -10 9 0 13 5 10 10 -3 6 -8 10 -10 10 -2
0 -7 -4 -10 -10z"/>
<path d="M1603 1833 c9 -2 23 -2 30 0 6 3 -1 5 -18 5 -16 0 -22 -2 -12 -5z"/>
<path d="M3616 1776 c3 -37 21 -130 41 -205 20 -75 41 -161 49 -191 7 -31 13
-44 13 -30 1 14 -10 68 -23 120 -31 118 -66 271 -77 330 -6 36 -7 31 -3 -24z"/>
<path d="M3803 1790 c0 -30 2 -43 4 -27 2 15 2 39 0 55 -2 15 -4 2 -4 -28z"/>
<path d="M1705 1814 c28 -7 57 -13 65 -13 8 0 -7 7 -35 15 -27 7 -57 13 -65
13 -8 0 8 -7 35 -15z"/>
<path d="M1828 1783 c6 -2 18 -2 25 0 6 3 1 5 -13 5 -14 0 -19 -2 -12 -5z"/>
<path d="M1905 1769 c53 -13 229 -39 257 -38 21 1 -143 29 -252 43 l-45 6 40
-11z"/>
<path d="M3351 1774 c-1 -5 10 -41 23 -80 14 -38 25 -64 25 -58 1 5 -10 41
-23 80 -14 38 -25 64 -25 58z"/>
<path d="M2620 1701 c5 -11 15 -23 21 -27 6 -3 3 5 -6 20 -20 30 -30 35 -15 7z"/>
<path d="M2546 1677 c3 -10 9 -15 12 -12 3 3 0 11 -7 18 -10 9 -11 8 -5 -6z"/>
<path d="M2650 1656 c0 -2 8 -10 18 -17 15 -13 16 -12 3 4 -13 16 -21 21 -21
13z"/>
<path d="M2580 1615 c6 -8 9 -19 6 -24 -4 -5 -2 -12 2 -15 8 -5 9 13 3 47 0 4
-6 7 -12 7 -8 0 -8 -4 1 -15z"/>
<path d="M2692 1604 c10 -10 20 -16 22 -13 3 3 -5 11 -17 18 -21 13 -21 12 -5
-5z"/>
<path d="M4392 1595 c0 -16 2 -22 5 -12 2 9 2 23 0 30 -3 6 -5 -1 -5 -18z"/>
<path d="M2614 1573 c4 -8 2 -13 -5 -13 -11 0 0 -12 56 -59 27 -22 70 -71 63
-71 -3 0 -15 9 -28 20 -28 24 -36 25 -44 4 -4 -9 -13 -14 -22 -10 -9 3 -12 2
-8 -5 3 -6 15 -8 26 -6 19 5 19 4 -3 -19 -27 -29 -12 -33 18 -4 22 20 22 20
28 0 7 -22 20 -26 30 -10 4 6 11 8 16 5 5 -4 6 2 2 12 -6 17 -5 17 15 -1 16
-14 19 -23 12 -37 -14 -25 -30 -33 -30 -15 0 12 -5 12 -32 3 -23 -9 -32 -9
-35 -1 -2 7 -12 10 -21 7 -10 -2 -28 7 -41 21 -26 28 -52 36 -30 10 31 -37
312 -204 345 -204 20 0 64 -25 64 -37 0 -19 -57 -60 -112 -81 -86 -32 -221
-46 -391 -39 -159 6 -232 20 -324 62 -29 13 -53 22 -53 19 0 -3 29 -19 65 -35
91 -43 202 -60 390 -61 228 -1 362 31 430 102 35 36 52 39 29 6 -26 -41 -104
-83 -199 -107 -78 -21 -113 -24 -270 -23 -106 0 -202 5 -234 12 -66 15 -79 8
-20 -10 31 -9 111 -13 264 -13 185 0 229 3 280 18 82 25 154 62 191 98 31 30
33 30 75 18 24 -7 49 -16 55 -21 7 -5 29 -18 50 -29 23 -11 29 -17 14 -13 -23
7 -23 5 7 -20 17 -15 37 -43 43 -62 17 -49 1 -63 -86 -75 -100 -14 -106 -17
-60 -41 27 -14 35 -22 26 -28 -18 -11 22 -23 86 -25 28 -1 56 -5 62 -9 14 -9
15 1 3 79 -5 33 -12 89 -16 125 l-6 66 -52 28 c-254 141 -428 266 -551 397
-44 46 -77 78 -72 72z"/>
<path d="M4382 1540 c0 -14 2 -19 5 -12 2 6 2 18 0 25 -3 6 -5 1 -5 -13z"/>
<path d="M10291 1519 c-18 -6 -31 -12 -29 -14 5 -5 78 14 78 20 0 6 -8 5 -49
-6z"/>
<path d="M2510 1465 c19 -19 36 -35 39 -35 3 0 -10 16 -29 35 -19 19 -36 35
-39 35 -3 0 10 -16 29 -35z"/>
<path d="M4371 1484 c0 -11 3 -14 6 -6 3 7 2 16 -1 19 -3 4 -6 -2 -5 -13z"/>
<path d="M10155 1482 c-33 -8 -55 -17 -50 -18 6 -2 42 5 80 15 39 11 61 19 50
19 -11 0 -47 -7 -80 -16z"/>
<path d="M10268 1463 c7 -3 16 -2 19 1 4 3 -2 6 -13 5 -11 0 -14 -3 -6 -6z"/>
<path d="M10050 1450 c-21 -7 -21 -8 -5 -9 11 0 27 4 35 9 18 11 5 11 -30 0z"/>
<path d="M10201 1449 c-18 -6 -31 -12 -29 -14 5 -5 78 14 78 20 0 6 -8 5 -49
-6z"/>
<path d="M9985 1430 c-8 -13 5 -13 25 0 13 8 13 10 -2 10 -9 0 -20 -4 -23 -10z"/>
<path d="M6931 1414 c0 -11 3 -14 6 -6 3 7 2 16 -1 19 -3 4 -6 -2 -5 -13z"/>
<path d="M10128 1423 c7 -3 16 -2 19 1 4 3 -2 6 -13 5 -11 0 -14 -3 -6 -6z"/>
<path d="M10050 1405 c-19 -7 -28 -13 -20 -13 8 0 31 6 50 13 19 7 28 13 20
13 -8 0 -31 -6 -50 -13z"/>
<path d="M9970 1380 c-18 -12 -2 -12 25 0 13 6 15 9 5 9 -8 0 -22 -4 -30 -9z"/>
<path d="M4352 1330 c0 -14 2 -19 5 -12 2 6 2 18 0 25 -3 6 -5 1 -5 -13z"/>
<path d="M3722 1295 c0 -16 2 -22 5 -12 2 9 2 23 0 30 -3 6 -5 -1 -5 -18z"/>
<path d="M4452 1300 c0 -14 2 -19 5 -12 2 6 2 18 0 25 -3 6 -5 1 -5 -13z"/>
<path d="M3542 1270 c0 -14 2 -19 5 -12 2 6 2 18 0 25 -3 6 -5 1 -5 -13z"/>
<path d="M4441 1254 c0 -11 3 -14 6 -6 3 7 2 16 -1 19 -3 4 -6 -2 -5 -13z"/>
<path d="M3555 1207 c9 -47 33 -126 34 -110 1 15 -30 136 -36 143 -3 3 -2 -12
2 -33z"/>
<path d="M9266 1215 c-9 -26 -7 -32 5 -12 6 10 9 21 6 23 -2 3 -7 -2 -11 -11z"/>
<path d="M4431 1204 c0 -11 3 -14 6 -6 3 7 2 16 -1 19 -3 4 -6 -2 -5 -13z"/>
<path d="M4332 1190 c0 -14 2 -19 5 -12 2 6 2 18 0 25 -3 6 -5 1 -5 -13z"/>
<path d="M6902 1170 c0 -14 2 -19 5 -12 2 6 2 18 0 25 -3 6 -5 1 -5 -13z"/>
<path d="M4321 1114 c0 -11 3 -14 6 -6 3 7 2 16 -1 19 -3 4 -6 -2 -5 -13z"/>
<path d="M6891 1114 c0 -11 3 -14 6 -6 3 7 2 16 -1 19 -3 4 -6 -2 -5 -13z"/>
<path d="M9202 1065 c-17 -37 -14 -45 4 -12 9 16 14 31 11 33 -2 2 -9 -7 -15
-21z"/>
<path d="M3592 1065 c0 -11 4 -31 8 -45 6 -20 8 -21 8 -5 0 11 -4 31 -8 45 -6
20 -8 21 -8 5z"/>
<path d="M6882 1050 c0 -19 2 -27 5 -17 2 9 2 25 0 35 -3 9 -5 1 -5 -18z"/>
<path d="M4402 1020 c0 -14 2 -19 5 -12 2 6 2 18 0 25 -3 6 -5 1 -5 -13z"/>
<path d="M6871 984 c0 -11 3 -14 6 -6 3 7 2 16 -1 19 -3 4 -6 -2 -5 -13z"/>
<path d="M4391 964 c0 -11 3 -14 6 -6 3 7 2 16 -1 19 -3 4 -6 -2 -5 -13z"/>
<path d="M8672 960 c0 -14 2 -19 5 -12 2 6 2 18 0 25 -3 6 -5 1 -5 -13z"/>
<path d="M6902 900 c0 -14 2 -19 5 -12 2 6 2 18 0 25 -3 6 -5 1 -5 -13z"/>
<path d="M9250 879 c-7 -11 -10 -23 -7 -25 2 -2 9 7 15 21 14 30 7 33 -8 4z"/>
<path d="M2630 849 c36 -10 73 -19 83 -19 24 0 66 -29 63 -43 -1 -7 -1 -9 1
-4 3 4 9 7 14 7 6 0 7 -6 3 -12 -4 -7 -4 -10 0 -7 11 10 128 -50 121 -61 -3
-6 1 -7 9 -4 11 4 16 0 16 -11 0 -9 4 -14 9 -11 4 3 19 -6 31 -19 13 -14 30
-25 37 -25 14 0 49 -18 69 -35 6 -5 34 -23 62 -40 30 -17 50 -35 47 -42 -2 -7
2 -13 10 -13 8 0 15 -4 15 -10 0 -5 9 -10 19 -10 10 0 21 -7 25 -15 3 -8 0
-15 -6 -15 -6 0 -2 -8 8 -17 12 -11 18 -28 16 -43 -2 -20 -1 -22 8 -10 8 11 9
5 4 -25 -6 -36 -5 -39 9 -27 9 8 13 20 10 28 -3 8 -1 14 4 14 14 0 12 -32 -3
-55 -16 -22 -19 -59 -5 -51 10 7 9 -13 -1 -30 -4 -6 -3 -26 2 -45 5 -18 6 -35
2 -38 -8 -7 -32 -48 -32 -57 0 -3 20 18 45 48 45 52 46 54 41 108 -3 30 -11
123 -17 205 -7 83 -13 151 -15 153 -1 2 -45 10 -97 17 -137 21 -317 92 -456
180 -22 14 -58 28 -78 31 -21 3 -54 9 -73 15 -65 17 -65 8 0 -12z m689 -255
c10 -9 -35 -3 -49 6 -11 8 -7 9 15 4 17 -4 32 -8 34 -10z"/>
<path d="M9116 853 c-6 -14 -5 -15 5 -6 7 7 10 15 7 18 -3 3 -9 -2 -12 -12z"/>
<path d="M2851 840 c-28 -6 291 -108 364 -116 28 -2 65 -7 83 -9 21 -2 32 1
32 9 0 8 -32 16 -97 24 -63 7 -145 27 -229 54 -74 25 -140 41 -153 38z"/>
<path d="M6852 820 c0 -14 2 -19 5 -12 2 6 2 18 0 25 -3 6 -5 1 -5 -13z"/>
<path d="M6891 824 c0 -11 3 -14 6 -6 3 7 2 16 -1 19 -3 4 -6 -2 -5 -13z"/>
<path d="M8651 814 c0 -11 3 -14 6 -6 3 7 2 16 -1 19 -3 4 -6 -2 -5 -13z"/>
<path d="M8602 800 c0 -14 2 -19 5 -12 2 6 2 18 0 25 -3 6 -5 1 -5 -13z"/>
<path d="M9210 779 c-7 -11 -10 -23 -7 -25 2 -2 9 7 15 21 14 30 7 33 -8 4z"/>
<path d="M6882 740 c0 -19 2 -27 5 -17 2 9 2 25 0 35 -3 9 -5 1 -5 -18z"/>
<path d="M6841 734 c0 -11 3 -14 6 -6 3 7 2 16 -1 19 -3 4 -6 -2 -5 -13z"/>
<path d="M4261 724 c0 -11 3 -14 6 -6 3 7 2 16 -1 19 -3 4 -6 -2 -5 -13z"/>
<path d="M8591 724 c0 -11 3 -14 6 -6 3 7 2 16 -1 19 -3 4 -6 -2 -5 -13z"/>
<path d="M9186 725 c-9 -26 -7 -32 5 -12 6 10 9 21 6 23 -2 3 -7 -2 -11 -11z"/>
<path d="M9056 715 c-9 -26 -7 -32 5 -12 6 10 9 21 6 23 -2 3 -7 -2 -11 -11z"/>
<path d="M6833 655 c0 -22 2 -30 4 -17 2 12 2 30 0 40 -3 9 -5 -1 -4 -23z"/>
<path d="M9166 675 c-9 -26 -7 -32 5 -12 6 10 9 21 6 23 -2 3 -7 -2 -11 -11z"/>
<path d="M6872 650 c0 -19 2 -27 5 -17 2 9 2 25 0 35 -3 9 -5 1 -5 -18z"/>
<path d="M8582 655 c0 -16 2 -22 5 -12 2 9 2 23 0 30 -3 6 -5 -1 -5 -18z"/>
<path d="M4332 630 c0 -14 2 -19 5 -12 2 6 2 18 0 25 -3 6 -5 1 -5 -13z"/>
<path d="M9146 625 c-9 -26 -7 -32 5 -12 6 10 9 21 6 23 -2 3 -7 -2 -11 -11z"/>
<path d="M8622 580 c0 -19 2 -27 5 -17 2 9 2 25 0 35 -3 9 -5 1 -5 -18z"/>
<path d="M6822 575 c0 -16 2 -22 5 -12 2 9 2 23 0 30 -3 6 -5 -1 -5 -18z"/>
<path d="M6862 575 c0 -16 2 -22 5 -12 2 9 2 23 0 30 -3 6 -5 -1 -5 -18z"/>
<path d="M8572 560 c0 -14 2 -19 5 -12 2 6 2 18 0 25 -3 6 -5 1 -5 -13z"/>
<path d="M8612 510 c0 -19 2 -27 5 -17 2 9 2 25 0 35 -3 9 -5 1 -5 -18z"/>
<path d="M9087 485 c-24 -50 -20 -58 4 -12 11 22 19 41 17 43 -3 2 -12 -12
-21 -31z"/>
<path d="M6812 490 c0 -14 2 -19 5 -12 2 6 2 18 0 25 -3 6 -5 1 -5 -13z"/>
<path d="M8562 485 c0 -16 2 -22 5 -12 2 9 2 23 0 30 -3 6 -5 -1 -5 -18z"/>
<path d="M8601 444 c0 -11 3 -14 6 -6 3 7 2 16 -1 19 -3 4 -6 -2 -5 -13z"/>
<path d="M8552 430 c0 -14 2 -19 5 -12 2 6 2 18 0 25 -3 6 -5 1 -5 -13z"/>
<path d="M6802 400 c0 -19 2 -27 5 -17 2 9 2 25 0 35 -3 9 -5 1 -5 -18z"/>
<path d="M4223 380 c0 -25 2 -35 4 -22 2 12 2 32 0 45 -2 12 -4 2 -4 -23z"/>
<path d="M8592 395 c0 -16 2 -22 5 -12 2 9 2 23 0 30 -3 6 -5 -1 -5 -18z"/>
<path d="M8542 375 c0 -16 2 -22 5 -12 2 9 2 23 0 30 -3 6 -5 -1 -5 -18z"/>
<path d="M6842 355 c0 -16 2 -22 5 -12 2 9 2 23 0 30 -3 6 -5 -1 -5 -18z"/>
<path d="M9021 329 c-6 -18 -9 -34 -7 -36 2 -2 9 10 15 28 6 18 9 34 7 36 -2
2 -9 -10 -15 -28z"/>
<path d="M8582 325 c0 -16 2 -22 5 -12 2 9 2 23 0 30 -3 6 -5 -1 -5 -18z"/>
<path d="M8532 315 c0 -16 2 -22 5 -12 2 9 2 23 0 30 -3 6 -5 -1 -5 -18z"/>
<path d="M6832 270 c0 -19 2 -27 5 -17 2 9 2 25 0 35 -3 9 -5 1 -5 -18z"/>
<path d="M4232 260 c0 -19 2 -27 5 -17 2 9 2 25 0 35 -3 9 -5 1 -5 -18z"/>
<path d="M5821 264 c0 -11 3 -14 6 -6 3 7 2 16 -1 19 -3 4 -6 -2 -5 -13z"/>
<path d="M8522 260 c0 -14 2 -19 5 -12 2 6 2 18 0 25 -3 6 -5 1 -5 -13z"/>
<path d="M8572 250 c0 -14 2 -19 5 -12 2 6 2 18 0 25 -3 6 -5 1 -5 -13z"/>
<path d="M6782 220 c0 -19 2 -27 5 -17 2 9 2 25 0 35 -3 9 -5 1 -5 -18z"/>
<path d="M5811 214 c0 -11 3 -14 6 -6 3 7 2 16 -1 19 -3 4 -6 -2 -5 -13z"/>
<path d="M4241 210 c0 -8 6 -28 14 -45 17 -39 18 -21 0 25 -7 19 -14 28 -14
20z"/>
<path d="M8562 195 c0 -16 2 -22 5 -12 2 9 2 23 0 30 -3 6 -5 -1 -5 -18z"/>
<path d="M6822 180 c0 -19 2 -27 5 -17 2 9 2 25 0 35 -3 9 -5 1 -5 -18z"/>
<path d="M8512 190 c0 -14 2 -19 5 -12 2 6 2 18 0 25 -3 6 -5 1 -5 -13z"/>
<path d="M3359 153 c-13 -16 -12 -17 4 -4 16 13 21 21 13 21 -2 0 -10 -8 -17
-17z"/>
<path d="M6772 140 c0 -19 2 -27 5 -17 2 9 2 25 0 35 -3 9 -5 1 -5 -18z"/>
<path d="M8501 134 c0 -11 3 -14 6 -6 3 7 2 16 -1 19 -3 4 -6 -2 -5 -13z"/>
<path d="M8546 128 c-3 -13 -5 -32 -5 -43 1 -11 5 -2 10 19 10 42 6 62 -5 24z"/>
<path d="M4271 130 c-1 -3 10 -31 23 -63 22 -56 37 -80 36 -61 -1 11 -58 131
-59 124z"/>
<path d="M6813 95 c0 -22 2 -30 4 -17 2 12 2 30 0 40 -3 9 -5 -1 -4 -23z"/>
<path d="M8492 80 c0 -14 2 -19 5 -12 2 6 2 18 0 25 -3 6 -5 1 -5 -13z"/>
<path d="M6762 60 c0 -19 2 -27 5 -17 2 9 2 25 0 35 -3 9 -5 1 -5 -18z"/>
<path d="M8532 40 c0 -14 2 -19 5 -12 2 6 2 18 0 25 -3 6 -5 1 -5 -13z"/>
<path d="M3214 28 l-19 -23 23 19 c12 11 22 21 22 23 0 8 -8 2 -26 -19z"/>
<path d="M8481 34 c0 -11 3 -14 6 -6 3 7 2 16 -1 19 -3 4 -6 -2 -5 -13z"/>
</g>
</svg>
